<svg 
 xmlns="http://www.w3.org/2000/svg"
 xmlns:xlink="http://www.w3.org/1999/xlink"
 width="57px" height="80px">
<path fill-rule="evenodd"  fill="rgb(221, 221, 221)"
 d="M26.877,0.002 C40.065,-0.174 48.073,8.701 47.354,22.463 C47.608,23.725 48.815,24.532 48.292,26.377 C47.870,27.863 46.723,29.182 45.480,29.854 C44.985,30.122 44.271,30.056 43.965,30.507 C43.737,32.138 43.596,33.511 43.148,35.115 C42.355,37.941 40.714,40.467 38.558,42.317 C37.572,42.993 36.587,43.670 35.601,44.346 C35.625,44.974 35.649,45.602 35.673,46.230 C37.343,49.423 47.388,50.118 50.671,52.461 C53.749,54.658 53.760,58.906 54.781,63.257 C55.104,64.603 55.434,65.826 55.696,67.268 C55.813,67.622 55.861,68.170 56.010,68.715 C56.680,71.807 58.124,76.926 55.430,78.835 C52.977,80.574 46.974,79.850 42.956,79.850 C32.742,79.850 22.525,79.850 12.312,79.850 C7.010,79.850 1.154,80.726 0.126,76.372 C-0.334,74.425 0.582,72.000 0.991,70.430 C2.486,64.702 2.398,54.731 6.832,52.171 C11.354,49.560 18.132,49.840 21.541,46.157 C21.571,45.307 21.569,44.520 21.253,44.056 C17.755,42.490 14.754,38.680 13.754,34.636 C13.562,33.211 13.369,31.787 13.177,30.362 C11.322,29.627 7.992,27.826 8.851,24.855 C9.139,24.275 9.428,23.695 9.716,23.116 C9.740,21.015 9.764,18.913 9.788,16.812 C9.989,15.193 10.279,13.481 10.870,11.885 C12.190,8.315 15.376,4.766 18.513,2.973 C20.203,2.006 21.814,1.311 23.908,0.640 C24.743,0.372 25.703,0.149 26.877,0.002 ZM27.812,2.224 C26.947,2.246 26.276,2.279 25.579,2.465 C24.349,2.608 23.176,2.965 22.046,3.480 C17.045,5.547 10.334,12.625 12.023,21.232 C12.143,21.232 12.264,21.232 12.384,21.232 C14.451,20.496 15.306,20.660 16.205,18.696 C17.131,16.674 16.215,15.041 18.224,13.914 C19.033,13.460 21.923,13.589 23.199,13.914 C25.380,14.468 30.682,14.579 33.366,14.131 C34.910,13.873 37.144,13.365 38.558,13.769 C40.816,14.413 39.993,16.711 40.937,18.696 C41.681,20.260 42.898,21.073 45.047,21.232 C45.143,21.111 45.239,20.990 45.335,20.870 C45.456,9.547 38.901,2.188 27.812,2.224 ZM19.378,15.797 C19.210,15.918 19.041,16.039 18.873,16.160 C17.943,19.686 17.859,20.696 15.412,22.681 C15.436,25.941 15.460,29.202 15.484,32.463 C16.453,37.800 19.772,41.789 24.569,43.259 C34.456,46.287 41.730,38.697 41.730,29.492 C41.706,27.222 41.682,24.951 41.658,22.681 C40.997,21.654 39.764,21.166 39.206,19.927 C38.706,18.817 38.688,16.984 38.053,15.943 C36.532,15.539 32.455,16.422 30.626,16.449 C29.833,16.449 29.040,16.449 28.247,16.449 C24.979,16.449 22.382,15.814 19.378,15.797 ZM12.600,23.333 C12.089,23.717 11.397,24.071 11.158,24.710 C10.568,26.293 11.747,27.783 13.033,27.970 C13.081,27.946 13.129,27.922 13.177,27.898 C13.177,26.401 13.177,24.903 13.177,23.406 C12.985,23.381 12.792,23.357 12.600,23.333 ZM44.037,23.333 C43.675,24.334 43.748,26.762 43.965,27.898 C44.110,27.922 44.254,27.946 44.398,27.970 C46.473,27.101 46.853,23.344 44.037,23.333 ZM23.776,45.360 C23.146,46.871 26.292,50.108 27.021,51.157 C27.410,51.718 27.821,53.003 28.607,52.896 C29.336,51.314 34.124,47.046 33.294,45.360 C33.270,45.360 33.246,45.360 33.222,45.360 C31.594,45.747 29.147,46.482 26.877,46.012 C25.843,45.795 24.810,45.578 23.776,45.360 ZM22.046,48.549 C21.411,48.985 20.518,49.344 20.171,50.070 C20.916,52.074 21.661,54.080 22.406,56.084 C23.464,56.046 25.924,55.057 26.444,54.345 C25.945,52.457 23.498,50.417 22.551,48.620 C22.382,48.597 22.214,48.573 22.046,48.549 ZM34.736,48.549 C33.661,49.452 30.988,52.909 30.338,54.200 C30.362,54.273 30.386,54.345 30.410,54.418 C30.818,54.946 33.885,56.038 34.808,55.867 C35.529,53.934 36.250,52.002 36.971,50.070 C36.658,49.399 35.615,48.622 34.736,48.549 ZM39.062,50.795 C37.700,52.452 37.448,57.718 35.313,58.258 C32.968,58.850 31.525,56.448 29.472,56.736 C28.880,59.187 30.556,67.262 28.175,67.532 C27.833,67.368 27.614,67.232 27.454,66.880 C27.205,66.408 27.309,65.409 27.309,64.707 C27.285,62.050 27.261,59.393 27.237,56.736 C25.548,56.782 24.452,57.905 23.055,58.258 C19.862,59.064 19.335,52.769 18.224,51.012 C16.352,51.144 14.480,51.898 13.033,52.316 C10.763,52.972 8.156,53.322 6.832,54.925 C4.847,57.328 4.462,63.709 3.731,67.388 C3.410,69.002 1.435,75.268 2.433,76.662 C3.420,78.040 8.286,77.851 10.581,77.531 C10.759,74.383 10.753,69.460 10.855,66.426 C10.936,65.703 11.344,65.485 11.879,65.431 C12.386,65.505 12.501,65.717 12.672,66.083 C12.975,66.777 12.816,68.121 12.816,69.054 C12.816,71.856 12.816,74.658 12.816,77.459 C15.313,77.778 18.266,77.605 20.820,77.604 C21.421,77.556 22.022,77.507 22.759,77.583 C24.788,77.626 27.341,77.608 29.400,77.604 C32.741,77.604 36.082,77.604 39.423,77.604 C40.996,77.604 42.996,77.786 44.326,77.459 C44.417,74.158 44.382,69.733 44.429,66.336 C44.408,65.795 44.776,65.387 45.459,65.411 C46.035,65.430 46.291,65.636 46.351,66.320 C46.395,69.022 46.511,71.760 46.489,74.488 C46.482,75.428 46.325,76.842 46.633,77.531 C48.306,77.866 53.917,77.755 54.565,76.807 C55.478,75.470 54.601,72.704 54.276,71.227 C53.530,67.839 52.819,64.125 52.168,60.877 C51.927,59.610 51.560,57.992 51.320,56.591 C50.147,53.400 46.262,52.943 42.884,51.954 C41.725,51.615 40.427,50.857 39.062,50.795 Z"/>
</svg>