<svg 
 xmlns="http://www.w3.org/2000/svg"
 xmlns:xlink="http://www.w3.org/1999/xlink"
 width="26px" height="31px">
<path fill-rule="evenodd"  fill="rgb(0, 169, 211)"
 d="M25.884,26.767 C25.779,27.051 25.464,27.178 25.176,27.076 L21.426,25.613 L20.849,29.540 C20.822,29.693 20.744,29.847 20.586,29.924 C20.324,30.052 19.983,29.976 19.826,29.719 L15.079,21.686 C14.397,21.814 13.689,21.891 12.955,21.891 C12.247,21.891 11.512,21.814 10.831,21.686 L6.084,29.719 C5.926,29.976 5.586,30.079 5.323,29.924 C5.166,29.847 5.087,29.693 5.061,29.540 L4.484,25.613 L0.734,27.076 C0.445,27.178 0.131,27.051 0.026,26.767 C-0.027,26.588 -0.001,26.408 0.078,26.280 L4.773,18.324 C2.937,16.374 1.835,13.781 1.835,10.933 C1.835,7.904 3.094,5.184 5.113,3.207 C7.133,1.231 9.913,-0.000 13.007,-0.000 C16.102,-0.000 18.882,1.231 20.901,3.207 C22.920,5.184 24.179,7.904 24.179,10.933 C24.179,13.781 23.078,16.374 21.242,18.324 L25.936,26.280 C26.015,26.408 26.041,26.588 25.884,26.767 ZM1.809,25.485 L4.720,24.356 C4.773,24.330 4.825,24.304 4.877,24.304 C5.192,24.278 5.454,24.484 5.507,24.766 L5.979,27.820 L9.755,21.378 C8.182,20.916 6.766,20.120 5.586,19.094 L1.809,25.485 ZM23.052,10.907 C23.052,8.187 21.924,5.722 20.114,3.951 C18.305,2.181 15.787,1.077 13.007,1.077 C10.227,1.077 7.710,2.181 5.900,4.003 C4.091,5.774 2.963,8.238 2.963,10.958 C2.963,13.678 4.091,16.143 5.900,17.914 C7.710,19.685 10.227,20.788 13.007,20.788 C15.787,20.788 18.305,19.685 20.114,17.862 C21.924,16.091 23.052,13.628 23.052,10.907 ZM20.429,19.094 C19.249,20.120 17.833,20.916 16.259,21.378 L20.036,27.820 L20.508,24.766 C20.560,24.458 20.849,24.252 21.137,24.304 C21.190,24.304 21.242,24.330 21.295,24.356 L24.206,25.485 L20.429,19.094 ZM19.170,16.964 C17.597,18.504 15.420,19.453 13.007,19.453 C10.595,19.453 8.418,18.504 6.844,16.964 C5.271,15.424 4.300,13.294 4.300,10.933 C4.300,8.572 5.271,6.441 6.844,4.901 C8.418,3.361 10.595,2.412 13.007,2.412 C15.420,2.412 17.597,3.361 19.170,4.901 C20.744,6.441 21.714,8.572 21.714,10.933 C21.714,13.294 20.744,15.424 19.170,16.964 ZM18.383,5.646 C17.020,4.311 15.105,3.464 13.007,3.464 C10.909,3.464 8.995,4.311 7.631,5.672 C6.267,7.006 5.402,8.879 5.402,10.933 C5.402,12.986 6.241,14.834 7.631,16.194 C8.995,17.528 10.909,18.375 13.007,18.375 C15.105,18.375 17.020,17.554 18.410,16.194 C19.773,14.859 20.613,12.960 20.613,10.907 C20.613,8.854 19.773,7.006 18.383,5.646 ZM17.964,10.727 L16.128,12.011 L16.836,14.115 C16.862,14.115 16.862,14.140 16.862,14.167 C16.915,14.346 16.915,14.500 16.889,14.680 C16.836,14.859 16.784,15.039 16.653,15.193 C16.443,15.475 16.154,15.629 15.840,15.680 C15.525,15.706 15.210,15.655 14.922,15.449 L13.086,14.140 L11.250,15.449 C10.988,15.655 10.647,15.732 10.332,15.680 C10.018,15.629 9.729,15.475 9.519,15.193 C9.388,15.039 9.309,14.859 9.283,14.680 C9.257,14.500 9.257,14.320 9.309,14.167 C9.336,14.167 9.336,14.140 9.336,14.115 L10.044,12.011 L8.208,10.727 C7.920,10.522 7.762,10.240 7.710,9.932 C7.657,9.624 7.710,9.316 7.920,9.033 C8.051,8.854 8.208,8.725 8.392,8.648 C8.575,8.572 8.785,8.520 8.995,8.546 L11.172,8.546 L11.853,6.441 C11.958,6.107 12.168,5.877 12.457,5.722 C12.640,5.646 12.824,5.594 13.033,5.594 C13.243,5.594 13.427,5.646 13.610,5.722 C13.873,5.877 14.109,6.134 14.214,6.441 L14.896,8.546 L17.072,8.546 C17.282,8.520 17.492,8.572 17.675,8.648 C17.859,8.725 18.016,8.854 18.148,9.033 C18.357,9.316 18.436,9.649 18.462,9.932 C18.410,10.240 18.252,10.522 17.964,10.727 ZM17.308,9.675 C17.282,9.675 17.282,9.649 17.282,9.649 C17.256,9.649 17.256,9.624 17.230,9.624 C17.203,9.598 17.177,9.598 17.151,9.598 C17.125,9.598 17.098,9.598 17.072,9.598 L14.502,9.598 C14.266,9.598 14.056,9.418 13.978,9.213 L13.165,6.749 C13.138,6.724 13.112,6.698 13.086,6.672 C13.086,6.647 13.060,6.647 13.033,6.647 C13.033,6.647 13.007,6.672 12.981,6.672 C12.929,6.672 12.902,6.724 12.902,6.749 L12.089,9.213 C12.011,9.444 11.801,9.598 11.565,9.598 L8.995,9.598 C8.969,9.598 8.942,9.598 8.916,9.598 C8.890,9.598 8.864,9.624 8.838,9.624 C8.811,9.624 8.811,9.624 8.785,9.649 C8.759,9.649 8.759,9.675 8.759,9.675 C8.733,9.701 8.733,9.752 8.733,9.777 C8.733,9.803 8.759,9.829 8.785,9.854 L8.811,9.881 L10.831,11.395 C11.040,11.523 11.119,11.754 11.040,11.985 L10.227,14.423 L10.227,14.448 C10.227,14.474 10.227,14.500 10.227,14.526 C10.227,14.526 10.227,14.551 10.254,14.577 C10.280,14.602 10.332,14.629 10.359,14.629 C10.385,14.629 10.437,14.629 10.463,14.602 L12.614,13.063 C12.719,12.986 12.850,12.960 12.955,12.960 C13.086,12.960 13.191,12.986 13.296,13.063 L15.446,14.602 C15.472,14.629 15.525,14.629 15.551,14.629 C15.604,14.629 15.630,14.602 15.656,14.577 C15.682,14.577 15.682,14.551 15.682,14.526 C15.682,14.500 15.682,14.474 15.682,14.448 L15.682,14.423 L14.869,11.985 C14.791,11.779 14.896,11.523 15.079,11.395 L17.203,9.881 L17.230,9.854 C17.256,9.829 17.282,9.803 17.335,9.777 C17.335,9.726 17.335,9.701 17.308,9.675 Z"/>
</svg>