<svg 
 xmlns="http://www.w3.org/2000/svg"
 xmlns:xlink="http://www.w3.org/1999/xlink"
 width="33px" height="39px">
<path fill-rule="evenodd"  fill="rgb(0, 169, 211)"
 d="M32.747,30.473 C32.595,30.685 32.385,30.809 32.143,30.836 L32.086,30.842 C32.039,30.860 31.958,31.005 31.966,31.066 L32.087,31.381 C32.199,31.677 32.159,32.043 31.980,32.359 C31.801,32.676 31.516,32.883 31.218,32.915 L30.892,32.950 C30.845,32.969 30.764,33.112 30.773,33.175 L30.893,33.490 C31.008,33.786 30.965,34.151 30.786,34.468 C30.607,34.783 30.322,34.991 30.024,35.023 L29.698,35.059 C29.651,35.077 29.570,35.221 29.579,35.283 L29.699,35.598 C29.812,35.894 29.771,36.260 29.592,36.576 C29.413,36.892 29.128,37.100 28.830,37.132 L28.504,37.166 C28.457,37.186 28.376,37.330 28.385,37.392 C28.475,37.630 28.469,37.892 28.362,38.141 C28.188,38.546 27.792,38.811 27.480,38.925 C26.804,39.170 26.084,38.804 25.547,37.945 C23.620,36.170 22.571,33.698 22.101,32.319 L21.773,32.897 C21.130,34.032 19.742,34.399 18.679,33.715 L17.557,32.992 L12.780,29.919 L12.771,29.913 C12.239,29.571 11.888,29.030 11.750,28.433 C11.612,27.835 11.687,27.182 12.008,26.614 L12.488,25.767 C8.955,26.170 6.529,25.514 6.111,25.388 C5.844,25.381 5.341,25.301 4.937,25.004 C4.636,24.783 4.436,24.477 4.351,24.111 C4.341,24.066 4.332,24.019 4.325,23.970 C4.276,23.634 4.312,23.154 4.559,22.814 C4.711,22.603 4.921,22.478 5.163,22.452 L5.220,22.446 C5.268,22.427 5.349,22.283 5.340,22.221 L5.219,21.906 C5.108,21.609 5.147,21.244 5.326,20.927 C5.505,20.612 5.790,20.404 6.088,20.372 L6.414,20.337 C6.461,20.319 6.543,20.174 6.534,20.113 L6.413,19.798 C6.304,19.502 6.341,19.135 6.520,18.820 C6.699,18.504 6.984,18.296 7.282,18.264 L7.608,18.229 C7.655,18.210 7.736,18.066 7.728,18.004 L7.607,17.690 C7.498,17.393 7.534,17.028 7.713,16.712 C7.893,16.396 8.177,16.188 8.476,16.156 L8.801,16.121 C8.849,16.102 8.930,15.958 8.921,15.896 C8.830,15.657 8.837,15.395 8.944,15.146 C9.118,14.742 9.514,14.476 9.826,14.363 C10.501,14.118 11.221,14.484 11.760,15.343 C13.686,17.117 14.735,19.588 15.206,20.969 L15.579,20.308 C16.222,19.174 17.610,18.807 18.673,19.491 L24.582,23.292 L24.905,23.500 L24.881,23.531 C25.699,24.282 25.920,25.573 25.344,26.591 L24.819,27.519 C28.350,27.117 30.776,27.773 31.195,27.899 C31.469,27.907 31.969,27.994 32.358,28.275 C32.703,28.524 32.919,28.883 32.981,29.316 C33.030,29.652 32.994,30.133 32.747,30.473 ZM11.126,16.030 L11.076,15.985 L11.031,15.912 C10.950,15.778 10.527,15.123 10.115,15.273 C9.915,15.346 9.771,15.498 9.760,15.556 C9.871,15.840 9.832,16.206 9.652,16.521 C9.473,16.838 9.188,17.045 8.890,17.077 L8.564,17.112 C8.517,17.131 8.435,17.275 8.444,17.337 L8.565,17.651 C8.675,17.949 8.637,18.314 8.458,18.630 C8.279,18.946 7.994,19.153 7.696,19.185 L7.371,19.221 C7.323,19.239 7.242,19.384 7.250,19.446 L7.371,19.760 C7.482,20.056 7.443,20.422 7.264,20.738 C7.085,21.054 6.800,21.261 6.502,21.294 L6.177,21.328 C6.129,21.348 6.048,21.491 6.056,21.554 L6.177,21.868 C6.192,21.907 6.204,21.948 6.214,21.989 C6.277,22.261 6.227,22.572 6.071,22.847 C5.892,23.163 5.607,23.371 5.309,23.402 L5.252,23.408 C5.237,23.435 5.186,23.625 5.215,23.823 C5.306,24.357 5.978,24.422 6.137,24.429 L6.201,24.414 L6.313,24.451 C6.341,24.460 9.085,25.321 13.078,24.724 L13.439,24.087 C13.371,24.063 13.305,24.026 13.253,23.966 C12.252,22.827 10.342,22.440 8.811,23.069 C8.578,23.164 8.318,23.041 8.229,22.793 C8.222,22.774 8.216,22.755 8.212,22.735 C8.158,22.503 8.274,22.260 8.488,22.172 C9.776,21.643 11.248,21.700 12.452,22.245 C12.297,21.929 12.203,21.593 12.108,21.236 C12.034,20.959 11.958,20.674 11.843,20.353 C11.836,20.334 11.830,20.315 11.826,20.296 C11.772,20.063 11.887,19.820 12.102,19.732 C12.334,19.637 12.595,19.760 12.684,20.007 C12.814,20.369 12.900,20.689 12.975,20.973 C13.185,21.764 13.291,22.162 14.088,22.582 C14.143,22.611 14.189,22.650 14.227,22.696 L14.592,22.052 C14.366,21.248 13.363,18.061 11.126,16.030 ZM18.206,20.314 C17.568,19.904 16.736,20.124 16.350,20.804 L15.562,22.196 L13.630,25.608 L12.779,27.111 C12.393,27.792 12.599,28.680 13.237,29.090 L13.360,29.170 L19.548,21.177 L18.206,20.314 ZM22.864,23.311 L20.328,21.678 L14.140,29.671 L17.357,31.741 L23.546,23.749 L22.864,23.311 ZM24.728,25.004 C24.664,24.725 24.519,24.468 24.309,24.271 L18.137,32.243 L19.146,32.891 C19.453,33.090 19.816,33.147 20.168,33.054 C20.521,32.961 20.816,32.730 21.002,32.402 L23.215,28.495 L23.676,27.679 L24.573,26.095 C24.766,25.754 24.811,25.362 24.728,25.004 ZM31.171,28.858 L31.108,28.875 L30.993,28.837 C30.965,28.828 28.221,27.966 24.228,28.563 L23.852,29.225 C23.929,29.248 24.002,29.285 24.060,29.351 C25.061,30.491 26.971,30.877 28.502,30.248 C28.734,30.153 28.995,30.277 29.084,30.525 C29.170,30.769 29.058,31.051 28.825,31.145 C27.537,31.674 26.065,31.617 24.861,31.072 C25.017,31.387 25.111,31.724 25.205,32.081 C25.279,32.357 25.355,32.643 25.470,32.965 C25.556,33.209 25.443,33.490 25.211,33.585 C24.979,33.681 24.718,33.557 24.629,33.309 C24.499,32.948 24.414,32.628 24.338,32.344 C24.128,31.553 24.023,31.155 23.225,30.736 C23.163,30.703 23.112,30.657 23.072,30.603 L22.714,31.235 C22.939,32.039 23.943,35.226 26.181,37.258 L26.275,37.375 C26.355,37.508 26.778,38.165 27.190,38.015 C27.391,37.942 27.534,37.790 27.546,37.731 C27.435,37.449 27.474,37.082 27.652,36.766 C27.831,36.451 28.116,36.243 28.415,36.210 L28.740,36.176 C28.788,36.156 28.869,36.013 28.860,35.951 L28.740,35.635 C28.626,35.339 28.668,34.973 28.847,34.657 C29.025,34.342 29.310,34.134 29.609,34.102 L29.934,34.067 C29.982,34.048 30.063,33.904 30.054,33.842 L29.934,33.527 C29.821,33.231 29.861,32.866 30.041,32.550 C30.219,32.233 30.504,32.026 30.803,31.994 L31.129,31.958 C31.176,31.939 31.257,31.795 31.248,31.733 L31.128,31.418 C31.017,31.121 31.056,30.756 31.235,30.440 C31.414,30.124 31.699,29.917 31.997,29.885 L32.054,29.879 C32.069,29.852 32.119,29.661 32.091,29.464 C32.011,28.940 31.333,28.867 31.171,28.858 ZM1.977,10.913 C1.977,10.239 4.942,8.928 10.378,8.928 C15.813,8.928 18.779,10.239 18.779,10.913 C18.779,11.585 15.813,12.898 10.378,12.898 C4.942,12.898 1.977,11.586 1.977,10.913 ZM10.481,12.024 C14.863,12.125 18.304,11.061 17.571,10.667 C16.971,10.301 14.465,9.189 10.378,9.199 C6.270,9.210 3.660,10.305 3.331,10.629 C2.562,11.381 6.134,11.923 10.481,12.024 ZM18.633,18.435 C18.340,18.364 18.239,18.354 17.698,18.221 C18.168,15.350 18.123,15.698 18.496,13.779 C19.076,10.779 19.625,7.926 19.741,4.356 C17.952,5.444 14.063,5.952 10.377,5.952 C6.691,5.952 2.802,5.443 1.013,4.356 C1.130,7.925 1.678,10.779 2.257,13.779 C2.987,17.555 3.803,21.799 4.189,29.802 C5.684,30.759 6.066,30.840 7.605,31.153 C9.875,31.536 11.685,31.336 12.850,31.177 C13.978,31.864 13.740,31.674 14.680,32.127 C13.193,32.493 11.973,32.556 10.378,32.551 C6.807,32.538 2.965,31.774 2.965,30.070 C2.965,22.651 2.073,18.038 1.286,13.967 C0.624,10.544 -0.001,7.310 -0.001,2.976 C-0.001,0.931 5.379,0.000 10.377,0.000 C15.376,0.000 20.755,0.930 20.755,2.976 C20.755,7.308 20.129,10.544 19.467,13.967 C19.086,15.893 19.206,15.076 18.633,18.435 ZM10.378,0.991 C4.302,0.991 0.989,2.302 0.989,2.975 C0.989,3.648 4.302,4.960 10.378,4.960 C16.454,4.960 19.767,3.648 19.767,2.975 C19.767,2.302 16.453,0.991 10.378,0.991 Z"/>
</svg>