<svg 
 xmlns="http://www.w3.org/2000/svg"
 xmlns:xlink="http://www.w3.org/1999/xlink"
 width="36px" height="26px">
<path fill-rule="evenodd"  fill="rgb(0, 169, 211)"
 d="M35.832,7.973 L32.340,11.374 C32.228,11.484 32.081,11.538 31.934,11.538 C31.787,11.538 31.639,11.484 31.527,11.374 L31.226,11.081 L29.510,12.752 C29.278,12.978 29.126,13.255 29.071,13.553 C28.743,15.337 27.874,16.956 26.559,18.238 L26.098,18.687 C26.329,19.003 26.455,19.380 26.455,19.777 C26.455,20.280 26.254,20.753 25.889,21.108 C25.617,21.373 25.279,21.550 24.911,21.623 C24.946,21.766 24.965,21.916 24.965,22.068 C24.965,22.571 24.764,23.044 24.399,23.400 C24.022,23.767 23.526,23.950 23.032,23.950 C22.632,23.950 22.233,23.831 21.895,23.592 C21.800,23.843 21.650,24.073 21.449,24.268 C21.072,24.635 20.578,24.819 20.083,24.819 C19.588,24.819 19.093,24.635 18.716,24.268 L18.657,24.211 C18.561,24.453 18.414,24.675 18.220,24.864 C17.856,25.219 17.370,25.416 16.853,25.416 C16.636,25.416 16.420,25.380 16.217,25.310 C16.187,25.344 16.156,25.377 16.123,25.409 C15.732,25.790 15.212,25.999 14.659,25.999 C14.107,25.999 13.587,25.790 13.196,25.409 C12.781,25.004 12.580,24.470 12.592,23.939 C12.576,23.940 12.561,23.940 12.546,23.940 C11.993,23.940 11.473,23.730 11.082,23.350 C10.653,22.931 10.452,22.373 10.480,21.823 C10.445,21.825 10.411,21.826 10.377,21.826 C9.847,21.826 9.317,21.629 8.913,21.237 C8.523,20.856 8.307,20.349 8.307,19.811 C8.307,19.290 8.509,18.800 8.875,18.424 L8.685,18.238 C7.385,16.971 6.520,15.372 6.183,13.612 C6.119,13.273 5.949,12.962 5.693,12.712 L4.680,11.725 L4.472,11.929 C4.364,12.033 4.218,12.092 4.065,12.092 C3.912,12.092 3.766,12.033 3.658,11.929 L0.167,8.527 C-0.057,8.308 -0.057,7.953 0.167,7.734 L7.939,0.162 C8.164,-0.056 8.528,-0.056 8.753,0.162 L12.244,3.564 C12.351,3.669 12.412,3.812 12.412,3.960 C12.412,4.109 12.351,4.251 12.244,4.356 L12.073,4.522 L13.510,5.922 C14.002,6.402 14.730,6.552 15.408,6.311 C15.833,6.160 16.279,6.085 16.732,6.085 C17.046,6.085 17.356,6.122 17.659,6.194 C18.384,5.807 19.201,5.603 20.037,5.603 C20.740,5.603 21.449,5.752 22.087,6.034 C22.767,6.334 23.573,6.197 24.093,5.691 L24.893,4.911 L24.545,4.572 C24.437,4.467 24.377,4.325 24.377,4.176 C24.377,4.027 24.437,3.885 24.545,3.779 L28.036,0.378 C28.261,0.160 28.625,0.160 28.849,0.378 L35.831,7.181 C35.939,7.286 36.000,7.428 36.000,7.577 C36.000,7.725 35.939,7.868 35.832,7.973 ZM14.009,24.617 C14.183,24.786 14.414,24.879 14.659,24.879 C14.905,24.879 15.136,24.786 15.309,24.617 C15.668,24.267 15.668,23.699 15.309,23.350 C15.130,23.175 14.895,23.088 14.659,23.088 C14.424,23.088 14.188,23.175 14.009,23.350 C13.651,23.699 13.651,24.267 14.009,24.617 ZM11.896,22.558 C12.069,22.726 12.300,22.820 12.546,22.820 C12.791,22.820 13.022,22.727 13.196,22.558 C13.554,22.208 13.554,21.640 13.196,21.291 C13.017,21.116 12.781,21.029 12.546,21.029 C12.310,21.029 12.075,21.116 11.896,21.291 C11.537,21.640 11.537,22.208 11.896,22.558 ZM9.726,20.444 C10.085,20.794 10.668,20.794 11.027,20.444 C11.385,20.095 11.385,19.527 11.027,19.178 C10.848,19.003 10.612,18.915 10.377,18.915 C10.141,18.915 9.906,19.003 9.726,19.178 C9.553,19.347 9.457,19.572 9.457,19.811 C9.457,20.050 9.553,20.275 9.726,20.444 ZM8.346,1.351 L1.387,8.131 L4.065,10.739 L11.024,3.960 L8.346,1.351 ZM15.801,7.364 C15.465,7.483 15.116,7.541 14.771,7.541 C14.001,7.541 13.249,7.253 12.697,6.715 L11.259,5.315 L5.493,10.932 L6.507,11.920 C6.927,12.330 7.206,12.844 7.314,13.407 C7.608,14.943 8.363,16.339 9.498,17.446 L9.910,17.848 C10.582,17.697 11.317,17.876 11.840,18.385 C12.269,18.804 12.470,19.361 12.442,19.911 C12.477,19.909 12.511,19.908 12.546,19.908 C13.098,19.908 13.618,20.118 14.009,20.498 C14.424,20.903 14.625,21.437 14.613,21.968 C14.629,21.968 14.644,21.967 14.659,21.967 C15.212,21.967 15.732,22.177 16.123,22.557 C16.604,23.026 16.798,23.671 16.705,24.281 C16.753,24.290 16.803,24.295 16.853,24.295 C17.063,24.295 17.259,24.216 17.407,24.072 C17.555,23.927 17.636,23.736 17.636,23.532 C17.636,23.328 17.555,23.137 17.407,22.994 C17.406,22.993 17.406,22.992 17.404,22.991 L13.647,19.330 C13.423,19.112 13.423,18.757 13.647,18.538 C13.872,18.319 14.236,18.319 14.460,18.538 L19.529,23.477 C19.834,23.774 20.331,23.774 20.636,23.477 C20.784,23.332 20.865,23.141 20.865,22.937 C20.865,22.736 20.787,22.547 20.644,22.405 L15.969,17.851 C15.745,17.632 15.745,17.277 15.969,17.059 C16.194,16.840 16.558,16.840 16.782,17.059 L21.442,21.598 C21.444,21.600 21.446,21.601 21.447,21.603 C21.453,21.609 21.459,21.614 21.464,21.620 L22.478,22.607 C22.783,22.905 23.280,22.905 23.586,22.607 C23.733,22.464 23.815,22.272 23.815,22.068 C23.815,21.864 23.733,21.673 23.586,21.528 L17.577,15.676 C17.353,15.456 17.353,15.102 17.577,14.883 C17.802,14.664 18.165,14.664 18.390,14.883 L23.968,20.316 C24.116,20.461 24.313,20.540 24.522,20.540 C24.731,20.540 24.927,20.461 25.075,20.317 C25.223,20.173 25.304,19.981 25.304,19.777 C25.304,19.573 25.223,19.381 25.075,19.238 L18.334,12.669 C18.328,12.664 18.323,12.659 18.317,12.653 L18.317,12.653 C18.317,12.653 18.316,12.653 18.316,12.653 L18.297,12.634 L18.277,12.615 C18.277,12.615 18.277,12.615 18.277,12.615 L17.793,12.143 L16.005,13.885 C15.555,14.322 14.964,14.541 14.374,14.541 C13.783,14.541 13.193,14.322 12.743,13.885 C12.308,13.460 12.068,12.896 12.068,12.296 C12.068,11.696 12.308,11.131 12.743,10.707 L16.303,7.238 C16.133,7.265 15.964,7.306 15.801,7.364 ZM24.906,6.483 C24.050,7.317 22.726,7.546 21.612,7.054 C21.122,6.837 20.577,6.723 20.037,6.723 C19.328,6.723 18.637,6.914 18.040,7.274 C17.788,7.425 17.554,7.605 17.343,7.811 L13.557,11.500 C13.338,11.712 13.218,11.995 13.218,12.296 C13.218,12.597 13.338,12.880 13.556,13.092 C14.007,13.532 14.741,13.532 15.191,13.092 L17.385,10.955 C17.386,10.955 17.386,10.954 17.386,10.954 C17.387,10.954 17.387,10.953 17.387,10.953 L18.342,10.023 C18.566,9.805 18.930,9.805 19.155,10.023 C19.379,10.242 19.379,10.597 19.155,10.816 L18.606,11.350 L19.090,11.822 C19.090,11.822 19.090,11.823 19.090,11.823 L19.108,11.840 C19.108,11.840 19.108,11.840 19.108,11.840 L19.128,11.860 C19.132,11.863 19.135,11.866 19.138,11.869 C19.336,12.056 21.110,13.682 22.590,13.092 C22.884,12.975 23.220,13.113 23.340,13.399 C23.460,13.685 23.319,14.012 23.025,14.129 C22.650,14.279 22.273,14.342 21.905,14.342 C21.825,14.342 21.746,14.338 21.667,14.332 L25.304,17.876 L25.746,17.446 C26.894,16.326 27.652,14.912 27.939,13.356 C28.036,12.831 28.298,12.349 28.697,11.960 L30.412,10.288 L25.706,5.703 L24.906,6.483 ZM28.443,1.566 L25.765,4.176 L31.934,10.186 L34.612,7.578 L28.443,1.566 ZM32.513,7.445 C32.830,7.445 33.088,7.696 33.088,8.005 C33.088,8.315 32.830,8.566 32.513,8.566 C32.195,8.566 31.938,8.315 31.938,8.005 C31.938,7.696 32.195,7.445 32.513,7.445 ZM3.190,8.559 C3.190,8.250 3.448,7.999 3.765,7.999 C4.083,7.999 4.340,8.250 4.340,8.559 C4.340,8.868 4.083,9.119 3.765,9.119 C3.448,9.119 3.190,8.868 3.190,8.559 Z"/>
</svg>