<svg 
 xmlns="http://www.w3.org/2000/svg"
 xmlns:xlink="http://www.w3.org/1999/xlink"
 width="30px" height="30px">
<path fill-rule="evenodd"  fill="rgb(0, 169, 211)"
 d="M2.190,-0.001 C2.614,-0.001 3.038,-0.001 3.462,-0.001 C3.744,0.175 4.193,0.144 4.549,0.254 C5.004,0.409 5.459,0.564 5.915,0.719 C7.461,1.445 8.890,2.384 9.981,3.554 C10.588,4.206 11.212,4.863 11.734,5.594 C11.827,5.723 12.199,6.318 12.324,6.299 C12.516,6.194 12.707,6.089 12.898,5.984 C13.538,5.715 14.486,5.353 15.459,5.519 C15.963,5.605 16.465,5.701 16.887,5.879 C17.172,6.024 17.456,6.169 17.741,6.314 C18.001,6.067 18.179,5.738 18.392,5.444 C18.786,4.980 19.179,4.514 19.572,4.049 C19.801,3.775 20.096,3.493 20.379,3.269 C20.822,2.918 21.203,2.481 21.667,2.144 C22.674,1.412 23.755,0.877 25.035,0.390 C25.516,0.206 26.438,-0.001 27.053,-0.001 C27.321,-0.001 27.591,-0.001 27.860,-0.001 C28.043,0.114 28.317,0.153 28.542,0.239 C29.041,0.430 29.531,0.975 29.753,1.439 C30.284,2.549 29.889,3.695 29.303,4.454 C28.738,5.186 27.912,5.609 26.820,5.834 C25.775,6.050 24.549,5.792 23.529,5.984 C22.485,6.181 21.777,6.623 21.093,7.154 C20.817,7.368 20.125,8.013 20.069,8.384 C21.254,9.956 22.435,11.637 22.986,13.814 C23.193,14.629 23.449,15.810 23.079,16.679 C22.804,17.326 22.351,17.980 21.822,18.389 C21.517,18.609 21.212,18.829 20.907,19.049 C20.917,19.084 20.927,19.119 20.938,19.154 C22.262,19.814 23.473,20.830 24.337,21.944 C24.688,22.397 25.179,22.993 24.911,23.864 C24.781,24.286 24.457,24.768 24.135,25.019 C23.974,25.144 23.814,25.269 23.654,25.393 C23.716,26.773 23.048,27.269 22.334,27.959 C21.794,28.481 21.200,29.223 20.565,29.624 C20.329,29.772 19.995,29.852 19.758,29.999 C19.655,29.999 19.551,29.999 19.448,29.999 C19.225,29.999 19.003,29.999 18.781,29.999 C18.650,29.920 17.987,29.580 17.818,29.608 C17.648,29.658 17.477,29.709 17.306,29.758 C16.937,29.843 16.420,29.828 16.127,29.999 C15.790,29.999 15.454,29.999 15.118,29.999 C14.029,29.999 13.252,29.850 12.433,29.653 C11.843,29.513 11.567,29.999 10.896,29.999 C10.684,29.999 10.472,29.999 10.260,29.999 C10.025,29.852 9.687,29.776 9.453,29.624 C9.236,29.424 9.018,29.224 8.801,29.024 C8.403,28.638 8.005,28.254 7.606,27.868 C7.215,27.491 6.714,27.122 6.504,26.578 C6.362,26.210 6.444,25.738 6.349,25.334 C5.485,25.005 4.611,23.456 5.309,22.394 C5.887,21.515 6.795,20.668 7.653,20.054 C7.948,19.854 8.243,19.654 8.537,19.454 C8.736,19.333 8.966,19.251 9.127,19.094 C9.127,19.074 9.127,19.053 9.127,19.034 C8.305,18.509 7.615,17.914 7.125,17.069 C6.556,16.087 6.743,14.741 7.079,13.679 C7.525,12.267 8.086,11.024 8.832,9.899 C9.175,9.383 9.651,8.913 9.950,8.384 C9.882,7.972 9.393,7.575 9.127,7.319 C8.467,6.682 7.605,6.190 6.504,5.984 C5.516,5.799 4.229,6.033 3.214,5.834 C2.062,5.609 1.238,5.135 0.653,4.364 C0.254,3.837 -0.182,2.907 0.079,1.949 C0.259,1.288 0.701,0.722 1.228,0.390 C1.344,0.316 2.169,0.052 2.190,-0.001 ZM2.671,1.004 C2.516,1.024 2.361,1.045 2.205,1.064 C1.883,1.146 1.571,1.344 1.398,1.575 C0.679,2.534 1.236,3.798 2.019,4.320 C3.343,5.200 5.680,4.713 7.405,5.159 C8.374,5.410 9.564,6.186 10.120,6.854 C10.301,7.079 10.483,7.304 10.664,7.529 C10.695,7.524 10.726,7.519 10.757,7.514 C10.969,7.324 11.181,7.134 11.393,6.945 C11.366,6.740 11.211,6.645 11.114,6.509 C10.691,5.919 10.229,5.405 9.779,4.859 C8.448,3.245 5.616,1.001 2.671,1.004 ZM27.037,1.004 C26.825,1.030 26.613,1.054 26.401,1.079 C25.945,1.199 25.490,1.319 25.035,1.439 C22.946,2.393 21.364,3.433 20.022,5.099 C19.662,5.546 19.301,5.979 18.951,6.449 C18.868,6.561 18.585,6.792 18.641,6.959 C18.690,7.053 19.221,7.515 19.339,7.529 C19.644,7.331 19.805,6.908 20.084,6.674 C20.816,6.061 21.592,5.461 22.645,5.159 C23.224,4.993 23.827,5.001 24.507,4.905 C24.730,4.910 24.952,4.914 25.175,4.919 C25.801,4.919 26.458,4.923 26.975,4.784 C27.430,4.662 27.839,4.447 28.170,4.200 C29.497,3.201 29.252,0.984 27.037,1.004 ZM14.885,6.509 C14.694,6.529 14.502,6.549 14.311,6.569 C13.757,6.686 13.209,6.903 12.790,7.169 C10.375,8.701 9.030,11.344 7.979,14.204 C7.496,15.518 7.894,16.442 8.537,17.234 C9.463,18.372 11.115,18.939 12.821,19.319 C13.363,19.440 13.861,19.376 14.466,19.469 C14.982,19.548 15.850,19.527 16.375,19.439 C18.832,19.027 21.310,18.259 22.117,16.289 C22.569,15.186 21.866,13.708 21.543,12.884 C20.721,10.791 19.485,8.877 17.803,7.604 C17.049,7.034 16.236,6.505 14.885,6.509 ZM12.091,11.009 C12.324,11.019 12.557,11.029 12.790,11.039 C13.228,11.157 14.305,11.695 13.892,12.284 C13.413,12.966 12.884,11.881 12.200,11.999 C11.675,12.089 10.949,12.673 10.555,12.404 C10.328,12.249 10.323,11.838 10.508,11.639 C10.876,11.242 11.520,11.221 12.091,11.009 ZM17.461,11.009 C18.281,10.990 20.052,11.460 19.603,12.254 C19.214,12.941 18.345,11.908 17.663,11.999 C17.124,12.071 16.732,12.715 16.266,12.419 C16.141,12.340 16.095,12.224 16.064,12.044 C15.957,11.412 16.976,11.188 17.461,11.009 ZM14.838,13.004 C16.104,12.982 17.685,13.846 16.903,15.134 C16.571,15.681 16.075,15.669 15.537,15.989 C15.542,16.229 15.547,16.469 15.552,16.709 C15.738,16.834 16.213,17.062 16.515,16.874 C16.657,16.785 16.725,16.587 16.903,16.529 C17.278,16.408 17.550,16.696 17.601,16.949 C17.652,17.202 17.429,17.372 17.322,17.489 C16.932,17.913 16.164,18.054 15.459,17.803 C15.297,17.746 15.175,17.616 14.978,17.594 C14.251,17.982 13.344,18.117 12.728,17.519 C12.594,17.389 12.346,17.183 12.433,16.859 C12.463,16.747 12.564,16.667 12.650,16.604 C13.119,16.263 13.332,16.838 13.659,16.934 C13.810,16.978 13.997,16.906 14.124,16.874 C14.275,16.836 14.414,16.808 14.482,16.694 C14.482,16.454 14.482,16.214 14.482,15.974 C14.311,15.919 14.140,15.864 13.969,15.809 C13.706,15.705 13.406,15.490 13.240,15.284 C13.142,15.163 13.064,15.024 13.007,14.864 C12.687,13.957 13.503,13.370 14.109,13.139 C14.341,13.050 14.589,13.096 14.838,13.004 ZM14.838,14.009 C14.573,14.107 13.813,14.193 14.016,14.594 C14.262,15.133 15.981,15.181 16.049,14.474 C15.856,14.102 15.425,14.002 14.838,14.009 ZM10.850,14.504 C11.098,14.514 11.347,14.524 11.595,14.534 C11.872,14.636 12.003,15.032 11.812,15.299 C11.676,15.489 10.898,15.624 10.602,15.434 C10.088,15.104 10.412,14.664 10.850,14.504 ZM18.610,14.504 C18.858,14.514 19.106,14.524 19.355,14.534 C19.630,14.635 19.759,15.037 19.572,15.299 C19.437,15.488 18.656,15.625 18.361,15.434 C17.842,15.097 18.174,14.668 18.610,14.504 ZM9.189,14.519 C9.878,14.488 10.053,15.198 9.577,15.449 C8.949,15.781 8.479,14.869 9.189,14.519 ZM20.550,14.519 C21.275,14.487 21.435,15.278 20.922,15.464 C20.240,15.711 19.916,14.884 20.550,14.519 ZM10.307,19.664 C9.940,20.216 9.777,21.126 9.639,21.854 C9.596,22.082 9.500,22.479 9.593,22.634 C11.014,22.618 11.700,23.126 12.154,24.074 C12.252,24.454 12.350,24.834 12.448,25.214 C12.645,25.894 12.842,26.574 13.038,27.254 C13.103,27.565 13.104,27.933 13.038,28.244 C13.007,28.394 12.848,28.564 12.914,28.739 C12.936,28.767 12.916,28.748 12.945,28.768 C13.176,28.915 13.631,28.887 13.938,28.934 C14.696,29.048 16.602,29.025 17.135,28.754 C17.135,28.744 17.135,28.734 17.135,28.724 C17.177,28.490 16.850,28.017 16.934,27.554 C17.036,26.984 17.222,26.429 17.384,25.904 C17.686,24.926 17.773,23.752 18.501,23.189 C18.823,22.940 19.204,22.732 19.681,22.634 C19.921,22.584 20.288,22.681 20.457,22.589 C20.457,22.579 20.457,22.568 20.457,22.559 C20.503,22.332 20.385,21.935 20.332,21.733 C20.154,21.054 20.092,20.173 19.727,19.679 C19.429,19.662 18.572,20.023 18.222,20.129 C17.389,20.379 16.490,20.351 15.521,20.504 C15.195,20.499 14.869,20.494 14.544,20.489 C14.280,20.479 14.016,20.469 13.752,20.459 C12.918,20.307 12.138,20.237 11.393,20.024 C11.047,19.925 10.691,19.694 10.307,19.664 ZM8.786,20.504 C8.553,20.668 8.320,20.833 8.087,20.999 C7.554,21.398 7.044,21.894 6.628,22.409 C6.435,22.648 6.013,22.932 6.085,23.399 C6.160,23.875 6.442,24.126 6.737,24.389 C6.763,24.384 6.789,24.379 6.815,24.374 C6.954,24.239 7.094,24.104 7.234,23.969 C7.637,23.693 8.041,23.418 8.444,23.144 C8.475,22.859 8.506,22.574 8.537,22.289 C8.594,21.929 8.651,21.569 8.708,21.209 C8.761,21.015 8.903,20.706 8.879,20.519 C8.848,20.514 8.817,20.509 8.786,20.504 ZM21.170,20.504 C21.099,20.689 21.334,21.335 21.388,21.569 C21.434,21.919 21.481,22.269 21.527,22.619 C21.538,22.784 21.548,22.949 21.558,23.114 C21.993,23.418 22.428,23.724 22.862,24.029 C23.003,24.137 23.067,24.357 23.281,24.389 C23.563,24.163 23.875,23.860 23.949,23.444 C24.014,23.076 23.765,22.859 23.623,22.679 C23.227,22.179 22.794,21.706 22.288,21.313 C22.044,21.125 21.499,20.538 21.170,20.504 ZM14.606,22.003 C15.904,21.981 16.708,22.237 17.259,22.918 C17.430,23.129 17.753,23.442 17.508,23.789 C17.355,24.005 16.965,24.061 16.732,23.879 C16.665,23.784 16.597,23.689 16.530,23.594 C16.220,23.198 15.480,22.846 14.637,22.993 C14.176,23.075 13.764,23.284 13.519,23.578 C13.426,23.689 13.333,23.799 13.240,23.909 C13.060,24.027 12.789,24.010 12.619,23.894 C12.279,23.661 12.501,23.257 12.666,23.039 C12.945,22.668 13.380,22.321 13.861,22.154 C14.094,22.072 14.356,22.099 14.606,22.003 ZM9.826,23.624 C9.707,23.649 9.588,23.674 9.469,23.698 C9.173,23.838 8.922,24.062 8.662,24.239 C8.123,24.603 7.597,24.818 7.405,25.529 C7.314,25.863 7.473,26.253 7.606,26.443 C8.025,26.853 8.444,27.264 8.863,27.674 C9.240,28.038 9.607,28.518 10.058,28.799 C10.284,28.939 10.779,29.039 11.145,28.934 C12.389,28.576 12.005,27.432 11.719,26.443 C11.590,25.999 11.496,25.565 11.362,25.154 C11.200,24.657 11.179,24.185 10.803,23.909 C10.554,23.725 10.276,23.619 9.826,23.624 ZM19.929,23.624 C19.519,23.808 19.321,23.744 19.044,24.089 C18.773,24.427 18.735,24.939 18.594,25.409 C18.277,26.469 17.319,28.618 18.951,28.948 C19.994,29.159 20.483,28.338 20.938,27.899 C21.390,27.461 22.406,26.683 22.598,26.083 C22.939,25.021 21.869,24.588 21.341,24.224 C21.090,24.050 20.824,23.792 20.519,23.684 C20.348,23.623 20.148,23.622 19.929,23.624 ZM10.229,24.509 C11.022,24.474 11.054,25.369 10.431,25.499 C10.045,25.579 9.724,25.141 9.888,24.779 C9.951,24.639 10.107,24.592 10.229,24.509 ZM19.556,24.509 C20.332,24.475 20.341,25.369 19.727,25.499 C19.288,25.591 19.036,25.050 19.230,24.734 C19.301,24.619 19.436,24.577 19.556,24.509 ZM8.724,25.514 C9.415,25.487 9.483,26.357 8.941,26.489 C8.304,26.643 8.018,25.800 8.724,25.514 ZM21.124,25.514 C21.839,25.484 21.915,26.362 21.341,26.489 C20.690,26.632 20.451,25.792 21.124,25.514 ZM10.741,27.524 C11.486,27.489 11.574,28.295 11.067,28.468 C10.380,28.704 10.118,27.800 10.741,27.524 ZM19.013,27.524 C19.771,27.489 19.859,28.286 19.339,28.468 C18.648,28.711 18.392,27.800 19.013,27.524 Z"/>
</svg>