<svg 
 xmlns="http://www.w3.org/2000/svg"
 xmlns:xlink="http://www.w3.org/1999/xlink"
 width="30px" height="30px">
<path fill-rule="evenodd"  fill="rgb(0, 169, 211)"
 d="M27.500,23.999 L16.500,23.999 L16.500,26.999 L18.500,26.999 C19.880,27.001 20.998,28.119 21.000,29.500 C21.000,29.776 20.776,30.000 20.500,30.000 L9.500,30.000 C9.224,30.000 9.000,29.776 9.000,29.500 C9.002,28.119 10.120,27.001 11.500,26.999 L13.500,26.999 L13.500,23.999 L2.500,23.999 C1.120,23.997 0.002,22.879 -0.000,21.499 C-0.000,21.222 0.224,20.998 0.500,20.998 L2.000,20.998 L2.000,14.997 C2.000,13.893 2.895,12.998 4.000,12.998 L6.000,12.998 L6.000,7.997 C6.000,6.892 6.895,5.997 8.000,5.997 L14.259,5.997 L11.620,3.947 C11.394,3.770 11.205,3.552 11.063,3.304 C10.457,2.247 10.823,0.898 11.880,0.293 C12.937,-0.313 14.285,0.053 14.891,1.110 L15.136,1.538 L15.380,1.110 C15.523,0.860 15.713,0.641 15.940,0.465 C16.901,-0.283 18.287,-0.111 19.036,0.850 C19.784,1.812 19.611,3.198 18.650,3.947 L16.009,5.997 L22.000,5.997 C23.105,5.997 24.000,6.892 24.000,7.997 L24.000,12.998 L26.000,12.998 C27.104,12.998 28.000,13.893 28.000,14.997 L28.000,20.998 L29.500,20.998 C29.776,20.998 30.000,21.222 30.000,21.499 C29.998,22.879 28.880,23.997 27.500,23.999 ZM11.500,27.999 C10.864,28.000 10.298,28.400 10.085,28.999 L19.914,28.999 C19.702,28.400 19.135,28.000 18.500,27.999 L11.500,27.999 ZM15.500,26.999 L15.500,23.999 L14.500,23.999 L14.500,26.999 L15.500,26.999 ZM18.034,3.155 C18.546,2.758 18.652,2.027 18.275,1.501 C18.174,1.359 18.043,1.241 17.892,1.154 C17.313,0.824 16.577,1.026 16.247,1.604 L15.568,2.791 C15.524,2.869 15.460,2.933 15.382,2.977 C15.143,3.114 14.837,3.031 14.700,2.791 L14.021,1.602 C13.820,1.242 13.447,1.013 13.035,0.996 C13.013,0.996 12.991,0.996 12.970,0.996 C12.581,0.994 12.215,1.182 11.992,1.501 C11.615,2.028 11.722,2.758 12.234,3.155 L15.134,5.411 L18.034,3.155 ZM23.000,8.997 L22.500,8.997 L22.500,7.997 L23.000,7.997 C23.000,7.445 22.552,6.997 22.000,6.997 L8.000,6.997 C7.448,6.997 7.000,7.445 7.000,7.997 L7.500,7.997 L7.500,8.997 L7.000,8.997 L7.000,10.325 C7.658,10.091 8.214,9.636 8.571,9.036 C8.608,8.983 8.653,8.937 8.706,8.901 C8.943,8.738 9.266,8.798 9.428,9.036 C9.683,9.463 10.041,9.821 10.468,10.076 C11.889,10.921 13.726,10.456 14.571,9.036 C14.613,8.966 14.672,8.907 14.742,8.865 C14.979,8.722 15.286,8.798 15.428,9.036 C15.683,9.463 16.041,9.821 16.468,10.076 C17.889,10.921 19.726,10.456 20.571,9.036 C20.613,8.966 20.672,8.907 20.742,8.865 C20.979,8.722 21.286,8.798 21.428,9.036 C21.786,9.636 22.342,10.091 23.000,10.325 L23.000,8.997 ZM23.000,11.366 C22.225,11.168 21.528,10.740 21.000,10.139 C20.887,10.268 20.765,10.390 20.636,10.503 C18.979,11.959 16.456,11.796 15.000,10.139 C14.887,10.268 14.765,10.390 14.636,10.503 C12.979,11.959 10.456,11.796 9.000,10.139 C8.472,10.740 7.775,11.168 7.000,11.366 L7.000,12.998 L23.000,12.998 L23.000,11.366 ZM27.000,15.998 L26.000,15.998 L26.000,14.997 L27.000,14.997 C27.000,14.445 26.552,13.998 26.000,13.998 L4.000,13.998 C3.448,13.998 3.000,14.445 3.000,14.997 L4.000,14.997 L4.000,15.998 L3.000,15.998 L3.000,17.498 C4.055,17.501 5.034,16.945 5.571,16.036 C5.608,15.983 5.653,15.938 5.706,15.902 C5.943,15.740 6.266,15.800 6.428,16.036 C6.683,16.464 7.041,16.822 7.468,17.076 C8.889,17.922 10.726,17.457 11.571,16.036 C11.608,15.983 11.653,15.938 11.706,15.902 C11.943,15.740 12.266,15.800 12.428,16.036 C12.683,16.464 13.041,16.822 13.468,17.076 C14.889,17.922 16.726,17.457 17.571,16.036 C17.608,15.983 17.653,15.938 17.706,15.902 C17.943,15.740 18.266,15.800 18.428,16.036 C18.683,16.464 19.041,16.822 19.468,17.076 C20.889,17.922 22.726,17.457 23.571,16.036 C23.614,15.967 23.672,15.908 23.742,15.866 C23.979,15.723 24.286,15.800 24.428,16.036 C24.966,16.945 25.944,17.501 27.000,17.498 L27.000,15.998 ZM27.000,18.498 C25.850,18.502 24.755,18.008 24.000,17.140 C23.887,17.270 23.765,17.391 23.636,17.505 C21.979,18.960 19.456,18.797 18.000,17.140 C17.887,17.270 17.765,17.391 17.636,17.505 C15.979,18.960 13.456,18.797 12.000,17.140 C11.887,17.270 11.765,17.391 11.636,17.505 C9.979,18.960 7.456,18.797 6.000,17.140 C5.244,18.008 4.150,18.502 3.000,18.498 L3.000,20.998 L27.000,20.998 L27.000,18.498 ZM1.085,21.999 C1.298,22.597 1.864,22.998 2.500,22.999 L27.500,22.999 C28.135,22.998 28.702,22.597 28.914,21.999 L1.085,21.999 ZM20.500,14.997 L21.500,14.997 L21.500,15.998 L20.500,15.998 L20.500,14.997 ZM14.500,14.997 L15.500,14.997 L15.500,15.998 L14.500,15.998 L14.500,14.997 ZM8.500,14.997 L9.500,14.997 L9.500,15.998 L8.500,15.998 L8.500,14.997 ZM17.500,7.997 L18.500,7.997 L18.500,8.997 L17.500,8.997 L17.500,7.997 ZM11.500,7.997 L12.500,7.997 L12.500,8.997 L11.500,8.997 L11.500,7.997 Z"/>
</svg>