<svg 
 xmlns="http://www.w3.org/2000/svg"
 xmlns:xlink="http://www.w3.org/1999/xlink"
 width="30px" height="32px">
<path fill-rule="evenodd"  fill="rgb(0, 169, 211)"
 d="M21.490,11.833 C21.701,11.681 21.992,11.704 22.178,11.888 C22.363,12.074 22.385,12.367 22.233,12.578 L17.254,19.481 C16.926,19.933 16.422,20.216 15.868,20.260 C15.818,20.264 15.769,20.265 15.719,20.265 C15.219,20.265 14.737,20.067 14.381,19.709 C13.989,19.316 13.788,18.772 13.831,18.217 C13.874,17.661 14.157,17.156 14.605,16.828 L21.490,11.833 ZM15.132,18.955 C15.305,19.128 15.542,19.212 15.784,19.196 C16.027,19.177 16.249,19.052 16.393,18.855 L19.430,14.645 L15.230,17.691 C15.035,17.834 14.910,18.057 14.892,18.300 C14.872,18.543 14.961,18.782 15.132,18.955 ZM27.744,7.417 L26.992,6.662 L25.849,7.808 C26.572,8.588 27.208,9.448 27.745,10.373 C27.752,10.382 27.762,10.388 27.769,10.399 C27.774,10.410 27.774,10.422 27.780,10.433 C28.994,12.545 29.692,14.991 29.692,17.599 C29.692,20.207 28.994,22.652 27.779,24.765 C27.774,24.775 27.774,24.788 27.768,24.798 C27.759,24.815 27.746,24.825 27.736,24.840 C26.482,26.993 24.687,28.790 22.539,30.045 C22.529,30.053 22.523,30.063 22.513,30.069 C22.497,30.079 22.479,30.082 22.462,30.090 C20.388,31.286 17.989,31.978 15.433,31.995 C15.429,31.995 15.425,31.999 15.421,31.999 C15.418,31.999 15.415,31.996 15.411,31.996 C15.385,31.997 15.360,31.999 15.334,31.999 C14.258,31.999 13.174,31.875 12.112,31.629 C11.826,31.564 11.647,31.277 11.713,30.991 C11.779,30.703 12.064,30.521 12.350,30.590 C13.189,30.782 14.041,30.889 14.890,30.919 L14.890,29.865 C14.890,29.570 15.128,29.331 15.422,29.331 C15.716,29.331 15.954,29.570 15.954,29.865 L15.954,30.915 C17.954,30.822 19.838,30.283 21.514,29.397 L20.990,28.487 C20.842,28.232 20.929,27.905 21.184,27.758 C21.437,27.611 21.763,27.698 21.911,27.954 L22.433,28.862 C24.097,27.803 25.511,26.385 26.566,24.717 L25.661,24.193 C25.406,24.046 25.319,23.720 25.466,23.464 C25.613,23.208 25.938,23.122 26.192,23.269 L27.100,23.795 C27.996,22.090 28.535,20.169 28.615,18.131 L27.565,18.131 C27.271,18.131 27.033,17.893 27.033,17.598 C27.033,17.303 27.271,17.065 27.565,17.065 L28.615,17.065 C28.535,15.027 27.996,13.106 27.100,11.402 L26.192,11.928 C26.109,11.976 26.017,11.999 25.927,11.999 C25.743,11.999 25.565,11.904 25.466,11.732 C25.319,11.477 25.406,11.151 25.660,11.004 L26.565,10.480 C25.510,8.811 24.096,7.394 22.432,6.335 L21.910,7.243 C21.811,7.414 21.632,7.510 21.448,7.510 C21.358,7.510 21.267,7.486 21.183,7.438 C20.929,7.291 20.842,6.965 20.988,6.709 L21.513,5.799 C19.837,4.913 17.952,4.374 15.953,4.282 L15.953,5.332 C15.953,5.627 15.715,5.866 15.421,5.866 C15.127,5.866 14.889,5.627 14.889,5.332 L14.889,4.278 C14.733,4.286 14.572,4.296 14.398,4.308 L13.827,4.353 C13.332,4.410 12.838,4.494 12.349,4.607 C12.063,4.674 11.777,4.493 11.712,4.207 C11.646,3.920 11.825,3.633 12.111,3.568 C12.678,3.437 13.251,3.344 13.825,3.283 L13.825,2.666 L13.028,2.666 C12.294,2.666 11.698,2.068 11.698,1.332 C11.698,0.597 12.294,-0.000 13.028,-0.000 L17.814,-0.000 C18.547,-0.000 19.144,0.597 19.144,1.332 C19.144,2.068 18.548,2.666 17.814,2.666 L17.017,2.666 L17.017,3.301 C18.987,3.533 20.835,4.166 22.480,5.117 C22.491,5.122 22.502,5.122 22.514,5.128 C22.524,5.135 22.530,5.145 22.540,5.152 C23.463,5.691 24.320,6.329 25.097,7.054 L26.240,5.909 L25.487,5.154 L27.744,2.891 L29.999,5.154 L27.744,7.417 ZM17.814,1.599 C17.960,1.599 18.080,1.479 18.080,1.332 C18.080,1.186 17.960,1.066 17.814,1.066 L13.028,1.066 C12.882,1.066 12.762,1.186 12.762,1.332 C12.762,1.479 12.882,1.599 13.028,1.599 L14.889,1.599 L14.889,3.211 C14.953,3.208 15.011,3.208 15.072,3.207 C15.160,3.205 15.247,3.199 15.334,3.199 C15.347,3.199 15.361,3.200 15.374,3.200 C15.389,3.200 15.406,3.199 15.421,3.199 C15.591,3.199 15.767,3.203 15.953,3.211 L15.953,1.599 L17.814,1.599 ZM27.743,4.400 L26.991,5.154 L27.743,5.909 L28.495,5.154 L27.743,4.400 ZM10.635,27.198 L6.912,27.198 C6.618,27.198 6.380,26.960 6.380,26.665 C6.380,26.370 6.618,26.132 6.912,26.132 L10.635,26.132 C10.929,26.132 11.166,26.370 11.166,26.665 C11.166,26.960 10.929,27.198 10.635,27.198 ZM10.635,23.465 L3.722,23.465 C3.428,23.465 3.190,23.227 3.190,22.932 C3.190,22.637 3.428,22.399 3.722,22.399 L10.635,22.399 C10.929,22.399 11.166,22.637 11.166,22.932 C11.166,23.227 10.929,23.465 10.635,23.465 ZM10.635,19.733 L0.531,19.733 C0.237,19.733 -0.001,19.494 -0.001,19.198 C-0.001,18.904 0.237,18.665 0.531,18.665 L10.635,18.665 C10.929,18.665 11.166,18.904 11.166,19.198 C11.166,19.494 10.929,19.733 10.635,19.733 ZM10.635,15.999 L2.658,15.999 C2.364,15.999 2.126,15.760 2.126,15.465 C2.126,15.171 2.364,14.932 2.658,14.932 L10.635,14.932 C10.929,14.932 11.166,15.171 11.166,15.465 C11.166,15.760 10.929,15.999 10.635,15.999 ZM10.635,12.266 L5.317,12.266 C5.023,12.266 4.785,12.027 4.785,11.732 C4.785,11.438 5.023,11.199 5.317,11.199 L10.635,11.199 C10.929,11.199 11.166,11.438 11.166,11.732 C11.166,12.027 10.929,12.266 10.635,12.266 ZM10.635,8.532 L7.976,8.532 C7.682,8.532 7.444,8.294 7.444,7.999 C7.444,7.704 7.682,7.465 7.976,7.465 L10.635,7.465 C10.929,7.465 11.166,7.704 11.166,7.999 C11.166,8.294 10.929,8.532 10.635,8.532 Z"/>
</svg>