<svg 
 xmlns="http://www.w3.org/2000/svg"
 xmlns:xlink="http://www.w3.org/1999/xlink"
 width="30px" height="30px">
<path fill-rule="evenodd"  fill="rgb(0, 169, 211)"
 d="M29.992,5.458 C29.993,5.441 29.993,5.423 29.992,5.406 C29.986,5.387 29.979,5.370 29.971,5.352 C29.942,5.267 29.893,5.190 29.828,5.128 C29.803,5.108 29.777,5.090 29.749,5.075 C29.724,5.059 29.698,5.045 29.670,5.034 C29.636,5.023 29.601,5.016 29.565,5.013 C29.544,5.007 29.523,5.003 29.501,4.999 C29.495,4.999 29.491,5.003 29.486,5.003 C29.480,5.003 29.475,5.000 29.469,5.000 L11.992,6.092 C11.926,4.563 10.938,3.227 9.496,2.717 C9.564,2.381 9.707,2.066 9.914,1.794 C10.448,1.219 11.219,0.926 12.000,0.999 C12.276,0.999 12.500,0.775 12.500,0.500 C12.500,0.223 12.276,-0.001 12.000,-0.001 C10.716,-0.001 9.751,0.393 9.132,1.170 C8.827,1.565 8.616,2.024 8.515,2.513 C8.427,2.507 8.339,2.499 8.250,2.499 C6.399,2.502 4.826,3.855 4.547,5.685 C4.052,5.244 3.412,5.000 2.749,4.999 C1.519,5.003 0.442,5.824 0.111,7.009 C0.041,7.094 0.001,7.200 -0.001,7.311 L-0.001,24.067 C-0.001,27.339 2.915,30.001 6.499,30.001 C6.529,29.998 6.559,29.992 6.588,29.983 C6.674,30.010 6.766,30.007 6.851,29.978 L29.652,22.732 C29.660,22.730 29.665,22.724 29.672,22.721 C29.705,22.708 29.736,22.690 29.765,22.670 C29.876,22.611 29.954,22.504 29.976,22.381 C29.986,22.347 29.993,22.313 29.996,22.278 C29.997,22.271 30.001,22.264 30.001,22.256 L30.001,5.500 C30.001,5.485 29.994,5.472 29.992,5.458 ZM5.762,5.072 C6.216,4.110 7.186,3.497 8.250,3.500 C8.303,3.500 8.355,3.504 8.408,3.507 C8.404,3.878 8.439,4.248 8.512,4.612 C8.564,4.838 8.766,4.999 8.999,4.999 C9.037,4.999 9.075,4.995 9.111,4.987 C9.381,4.925 9.549,4.657 9.487,4.388 L9.487,4.388 C9.448,4.181 9.424,3.972 9.415,3.762 C10.785,4.409 11.371,6.045 10.724,7.415 C10.077,8.785 8.442,9.372 7.072,8.724 C5.701,8.077 5.115,6.442 5.762,5.072 ZM5.999,28.981 C3.200,28.754 0.999,26.636 0.999,24.067 L0.999,10.559 C2.132,12.246 3.974,13.322 5.999,13.481 L5.999,28.981 ZM6.431,12.497 C3.562,12.461 1.144,10.230 1.012,7.540 C1.018,7.496 1.024,7.451 1.035,7.403 C1.200,6.587 1.917,6.000 2.749,6.000 C3.502,6.002 4.170,6.483 4.409,7.196 C4.459,7.341 4.574,7.455 4.719,7.503 C5.409,9.454 7.549,10.475 9.499,9.786 C10.705,9.359 11.610,8.346 11.899,7.100 L25.605,6.244 L14.345,9.915 C14.338,9.917 14.333,9.923 14.326,9.925 C14.294,9.939 14.263,9.957 14.235,9.977 C14.124,10.035 14.046,10.142 14.025,10.266 C14.014,10.299 14.007,10.335 14.004,10.369 C14.004,10.377 14.000,10.383 14.000,10.391 L14.000,13.000 C14.000,13.276 13.776,13.500 13.500,13.500 C13.224,13.500 13.000,13.276 13.000,13.000 L13.000,11.045 C13.000,10.769 12.776,10.545 12.500,10.545 C12.224,10.545 12.000,10.769 12.000,11.045 L12.000,23.501 C12.000,23.777 11.776,24.001 11.500,24.001 C11.224,24.001 11.000,23.777 11.000,23.501 L11.000,11.695 C10.988,11.644 10.979,11.592 10.975,11.540 C10.973,11.533 10.967,11.528 10.965,11.521 C10.951,11.489 10.934,11.459 10.914,11.431 C10.889,11.376 10.847,11.330 10.794,11.301 C10.750,11.258 10.693,11.230 10.632,11.222 C10.595,11.209 10.558,11.202 10.519,11.198 C10.513,11.198 10.507,11.195 10.500,11.195 C10.474,11.198 10.448,11.203 10.423,11.211 C10.397,11.211 10.371,11.215 10.345,11.220 L6.431,12.497 ZM7.000,21.312 L7.000,19.363 L10.000,18.384 L10.000,20.333 L7.000,21.312 ZM10.000,21.384 L10.000,23.335 L7.000,24.312 L7.000,22.364 L10.000,21.384 ZM7.000,18.312 L7.000,13.363 L10.000,12.384 L10.000,17.332 L7.000,18.312 ZM29.001,21.890 L7.000,28.881 L7.000,25.364 L10.240,24.308 C10.684,25.006 11.610,25.211 12.307,24.767 C12.739,24.491 13.001,24.013 13.000,23.501 L13.000,23.409 L29.001,18.190 L29.001,21.890 ZM29.001,17.137 L13.000,22.356 L13.000,20.409 L29.001,15.189 L29.001,17.137 ZM29.001,14.137 L13.000,19.356 L13.000,17.408 L29.001,12.190 L29.001,14.137 ZM29.001,11.137 L13.000,16.356 L13.000,14.408 C13.160,14.467 13.329,14.499 13.500,14.500 C14.328,14.499 14.999,13.828 15.000,13.000 L15.000,10.754 L29.001,6.189 L29.001,11.137 L29.001,11.137 Z"/>
</svg>