<svg 
 xmlns="http://www.w3.org/2000/svg"
 xmlns:xlink="http://www.w3.org/1999/xlink"
 width="30px" height="30px">
<path fill-rule="evenodd"  fill="rgb(0, 169, 211)"
 d="M16.895,-0.001 C20.238,-0.048 22.373,1.488 23.365,3.753 C23.776,4.689 24.175,6.104 23.891,7.492 C23.776,8.051 23.632,8.575 23.426,9.047 C22.510,11.138 20.768,12.392 18.186,12.845 C17.160,13.026 16.112,12.732 15.379,12.502 C13.331,11.859 11.894,10.245 11.295,8.150 C11.050,7.291 10.948,5.947 11.205,4.994 C11.356,4.437 11.524,3.879 11.791,3.424 C12.496,2.221 13.406,1.284 14.673,0.643 C15.131,0.410 15.671,0.245 16.219,0.119 C16.396,0.078 16.781,0.114 16.895,-0.001 ZM17.315,1.166 C17.105,1.186 16.895,1.206 16.685,1.226 C16.354,1.310 16.024,1.395 15.694,1.480 C14.146,2.083 13.041,3.198 12.481,4.785 C11.732,6.907 12.709,9.349 13.922,10.319 C14.410,10.708 14.870,11.005 15.484,11.290 C16.066,11.562 17.048,11.844 17.946,11.694 C20.321,11.298 21.618,10.202 22.465,8.299 C22.926,7.264 22.848,5.563 22.435,4.560 C21.637,2.626 20.049,1.157 17.315,1.166 ZM17.255,2.347 C17.814,2.337 17.976,2.588 17.976,3.140 C17.981,3.290 17.986,3.439 17.991,3.589 C18.136,3.663 18.281,3.738 18.426,3.813 C18.845,4.070 19.432,4.828 18.621,5.129 C18.496,5.129 18.371,5.129 18.246,5.129 C17.851,4.984 17.470,4.339 16.955,4.890 C16.869,4.982 16.761,5.157 16.805,5.368 C16.933,5.983 17.885,5.837 18.351,6.131 C18.922,6.492 19.396,7.425 19.012,8.314 C18.803,8.796 18.429,9.016 17.991,9.272 C17.895,9.879 18.083,10.321 17.555,10.498 C17.404,10.549 17.189,10.526 17.075,10.453 C16.623,10.161 16.971,9.790 16.790,9.286 C16.660,9.222 16.530,9.157 16.399,9.092 C16.039,8.878 15.050,7.980 15.919,7.597 C16.055,7.537 16.293,7.537 16.430,7.597 C16.780,7.751 17.092,8.461 17.676,8.105 C17.822,8.015 17.939,7.896 17.976,7.701 C18.123,6.922 16.886,7.033 16.445,6.759 C15.798,6.359 15.323,5.265 15.859,4.381 C16.094,3.994 16.427,3.835 16.805,3.589 C16.791,2.783 16.771,2.675 17.255,2.347 ZM27.629,12.427 C28.874,12.409 30.001,13.271 30.001,14.476 C30.001,14.805 30.001,15.134 30.001,15.463 C29.483,16.584 28.559,17.395 27.824,18.319 C27.079,19.197 26.333,20.075 25.587,20.952 C24.416,22.425 23.527,23.633 21.279,24.062 C20.600,24.192 19.733,24.107 18.982,24.107 C17.521,24.107 16.059,24.107 14.598,24.107 C13.882,24.107 12.734,23.987 12.166,24.182 C11.662,24.354 11.183,24.794 10.890,25.184 C10.905,25.483 11.011,25.775 10.935,26.111 C10.771,26.832 10.266,27.141 9.839,27.591 C9.354,28.070 8.868,28.549 8.383,29.028 C8.204,29.206 7.440,30.162 7.016,29.970 C6.796,29.870 6.639,29.653 6.476,29.491 C6.111,29.122 5.745,28.753 5.380,28.384 C4.139,27.138 2.898,25.892 1.657,24.645 C1.315,24.305 0.079,23.263 0.005,22.821 C-0.071,22.364 0.496,22.033 0.711,21.819 C1.282,21.250 1.852,20.682 2.423,20.114 C2.706,19.832 2.971,19.485 3.323,19.277 C3.535,19.151 3.801,19.084 4.089,19.037 C4.332,18.998 4.454,19.091 4.599,18.992 C4.768,18.475 5.230,18.066 5.545,17.676 C6.488,16.510 7.936,15.812 9.704,15.463 C10.241,15.357 11.016,15.241 11.655,15.343 C12.219,15.434 12.722,15.464 13.217,15.598 C13.585,15.697 13.865,15.911 14.313,15.912 C15.824,15.912 17.335,15.912 18.847,15.912 C19.577,15.912 20.477,15.807 21.128,15.957 C21.505,16.043 21.853,16.215 22.119,16.420 C22.239,16.534 22.360,16.649 22.480,16.764 C22.815,16.567 23.296,15.996 23.546,15.687 C24.076,15.154 24.607,14.620 25.137,14.087 C25.500,13.639 25.965,13.130 26.443,12.801 C26.675,12.642 27.001,12.523 27.314,12.457 C27.419,12.447 27.524,12.437 27.629,12.427 ZM27.689,13.594 C27.479,13.675 27.288,13.656 27.119,13.758 C26.671,14.029 26.119,14.758 25.737,15.149 C24.822,16.086 23.906,17.023 22.990,17.961 C23.052,19.400 22.310,20.264 21.174,20.547 C20.529,20.708 19.290,20.592 18.531,20.592 C17.861,20.592 17.190,20.592 16.520,20.592 C16.239,20.592 15.826,20.645 15.619,20.547 C15.490,20.487 15.355,20.341 15.304,20.204 C15.256,20.080 15.283,19.934 15.319,19.830 C15.483,19.352 16.017,19.426 16.655,19.426 C17.700,19.426 18.747,19.426 19.792,19.426 C20.383,19.426 20.975,19.463 21.324,19.232 C22.091,18.722 21.914,17.597 21.174,17.198 C20.784,16.988 19.987,17.078 19.417,17.078 C18.101,17.078 16.785,17.078 15.469,17.078 C14.943,17.078 14.418,17.078 13.892,17.078 C13.672,16.994 13.452,16.908 13.232,16.824 C12.801,16.679 12.327,16.605 11.836,16.525 C11.410,16.456 10.887,16.476 10.484,16.540 C8.626,16.835 7.817,17.186 6.686,18.185 C6.395,18.442 5.625,19.240 5.590,19.681 C7.111,21.191 8.633,22.701 10.154,24.212 C10.441,24.104 10.652,23.735 10.890,23.554 C11.325,23.222 11.813,23.052 12.481,22.941 C13.092,22.941 13.702,22.941 14.313,22.941 C15.889,22.941 17.466,22.941 19.042,22.941 C20.471,22.941 21.666,22.931 22.540,22.417 C23.521,21.840 24.206,20.819 24.897,19.949 C26.163,18.449 27.429,16.948 28.695,15.448 C29.278,14.626 28.631,13.608 27.689,13.594 ZM13.382,19.322 C14.122,19.428 14.227,20.331 13.547,20.488 C13.106,20.589 12.714,20.166 12.841,19.755 C12.927,19.479 13.114,19.424 13.382,19.322 ZM4.194,20.204 C3.597,20.459 3.268,20.932 2.843,21.355 C2.378,21.819 1.912,22.283 1.447,22.746 C1.447,22.761 1.447,22.776 1.447,22.791 C3.363,24.705 5.280,26.620 7.197,28.534 C7.867,27.880 8.538,27.227 9.208,26.575 C9.421,26.362 9.766,26.167 9.794,25.782 C9.825,25.348 8.911,24.648 8.653,24.391 C7.612,23.354 6.572,22.316 5.530,21.281 C5.223,20.975 4.706,20.239 4.194,20.204 Z"/>
</svg>