<?xml version="1.0" encoding="utf-8"?>
<!-- Generator: Adobe Illustrator 22.1.0, SVG Export Plug-In . SVG Version: 6.00 Build 0)  -->
<svg version="1.1" id="Слой_1" xmlns="http://www.w3.org/2000/svg" xmlns:xlink="http://www.w3.org/1999/xlink" x="0px" y="0px"
	 viewBox="0 0 57 80" style="enable-background:new 0 0 57 80;" xml:space="preserve">
<style type="text/css">
	.st0{fill:#DDDDDD;}
</style>
<path class="st0" d="M53.6,57.3c-1-5.3-5.9-6.2-5.9-6.2l0,0c-0.1,0,0.4,0.1-11.9-3v-0.4h9.1c1.9,0,3.4-1.5,3.4-3.5V26.6
	c0.2-0.7,0.2-1.3,0-2v-6.4c0-0.6-0.5-1.2-1.2-1.2s-1.2,0.5-1.2,1.2v3.4c-0.6-0.4-1.3-0.6-2.1-0.8c-0.3-1.2-1.3-2.2-2.5-2.4
	c-1.3-0.2-2.3-1-3-2.3c-0.3-0.6-0.9-1.1-1.6-1.1c-0.7-0.1-1.4,0.2-1.8,0.8c-2,2.7-7.5,8.9-17.1,8.9c-0.7,0-1.2,0-1.4,0
	c-1.8-0.1-3.2,1.3-3.2,3.1v2.7c0,4.3,1.8,8.5,4.8,11.4c1,1,2.1,1.8,3.3,2.5v1h-9.1c-0.6,0-1.1-0.5-1.1-1.1V17.9
	c0-8.5,6.9-15.6,15.2-15.6c0,0,0.1,0,0.1,0c3,0,6.4,0.9,8.7,2.2c1.5,0.8,2.4,0.2,3.9,0.2c3.6,0,6.4,3.7,6.8,7.1c0,0,0,0.2,0,6.4
	c0,7.4,1.2-3,1,1.6c0.5,4.4,1.3,2.7,1.3-1c0-6.2,0-7,0-7.2c-0.5-4.7-4.4-9.2-9.1-9.2c-1.8,0-2.1,0.5-2.7,0.1C33.7,1,29.8,0,26.5,0
	C16.9-0.1,8.9,8,8.9,17.9v26.3c0,1.9,1.5,3.5,3.4,3.5h9.1v0.4l-11.9,3c0,0,0,0,0,0l-0.9,0.3c0,0-0.1,0-0.1,0c-1.5,0.6-4.3,2.1-5,5.9
	C0,75.2,0.2,74.5,0.1,74.5c-0.4,3,1.1,5.5,4.7,5.5h12.5c0.6,0,1.2-0.5,1.2-1.2c0-0.6-0.5-1.2-1.2-1.2H13V66.6c0-0.6-0.5-1.2-1.2-1.2
	s-1.2,0.5-1.2,1.2v11.1H4.8c-1.5,0-2.4-0.5-2.4-2.1c0-0.8,0,0,3.4-17.7c0.5-2.6,2.4-3.7,3.5-4.2l0.8-0.2l6.8-1.7
	c7.6,9.1,7.1,8.6,7.6,9c2.5,2.5,6.1,2.3,8.5-0.5l7.1-8.5l6.8,1.7c0.2,0.1,3.6,0.7,4.3,4.4c3.4,17.6,3.4,16.9,3.4,17.7
	c0,1.6-0.9,2.1-2.4,2.1h-5.8V66.6c0-0.6-0.5-1.2-1.2-1.2s-1.2,0.5-1.2,1.2L38,77.7H16.5c-0.6,0,1,1,0.4,1.1
	c-3.8,0.6-1.1,1.2,0.2,1.3h29.5c2.9,0,10.3-1.6,10.3-4.5C57,74.2,56.9,74.8,53.6,57.3z M43.9,23.2c1,0.3,1.7,0.9,2,1.7v1.3
	c-0.3,0.8-1,1.4-2,1.7V23.2z M43.9,30.7v-0.2c0.7-0.1,1.4-0.4,2-0.8v14.5c0,0.6-0.5,1.1-1.1,1.1h-9.1v-0.9
	C40.6,41.9,43.9,36.7,43.9,30.7z M19.7,40.2c-2.6-2.5-4.1-6.1-4.1-9.8c0.1-2.6-0.2-2.9,0.2-3.2c0.1-0.1,0.3-0.2,0.5-0.2
	c8.3,0.5,15.4-3.2,20.1-9.4c1.3,2.3,3.1,3,4.5,3.1c0.3,0,0.6,0.3,0.6,0.7c0,3.2,0,6,0,9.2C41.6,42.3,27.8,48.1,19.7,40.2z
	 M31.3,58.7c-1.6,1.9-3.9,1.9-5.5,0l-2.4-2.9h10.3L31.3,58.7z M35.7,53.4H21.4l-2-2.4l3.4-0.9c0.5-0.1,0.9-0.6,0.9-1.1l0-3.6
	c3.2,1.1,6.5,1.1,9.6,0c0,3.7,0,3.7,0.1,4c0.1,0.4,0.4,0.7,0.8,0.8l3.4,0.9L35.7,53.4z"/>
</svg>
