<?xml version="1.0" encoding="utf-8"?>
<!-- Generator: Adobe Illustrator 22.1.0, SVG Export Plug-In . SVG Version: 6.00 Build 0)  -->
<svg version="1.1" id="Слой_1" xmlns="http://www.w3.org/2000/svg" xmlns:xlink="http://www.w3.org/1999/xlink" x="0px" y="0px"
	 viewBox="0 0 1920 155" style="enable-background:new 0 0 1920 155;" xml:space="preserve">
<style type="text/css">
	.st0{fill:#FFFFFF;}
	.st1{fill-rule:evenodd;clip-rule:evenodd;fill:#E7E4FB;}
	.st2{fill-rule:evenodd;clip-rule:evenodd;fill:#FCF5FF;}
</style>
<path class="st0" d="M485.2,63c311.2,1,526.5,90.9,850.8,92.1c289.4,1,463.5-14.2,584-52v-305H0v329.4
	C63.2,108.8,246.3,62.2,485.2,63z"/>
<path class="st1" d="M994.6,123.5c-1.1-0.1-2.1-0.1-3.2-0.2c106.3,17.1,217,31.3,344.6,31.8c289.4,1,463.5-14.2,584-52V33.1
	c-120,47.7-296.8,75.8-596.3,95.6C1203.2,136.7,1096.7,131.8,994.6,123.5z"/>
<path class="st2" d="M994.6,123.5c102.1,8.4,208.6,13.2,329.1,5.3c299.5-19.8,476.3-47.9,596.3-95.6V7.4
	c-120.9,50.8-300.3,83.7-604.4,111.7C1198.7,129.7,1094.5,128.5,994.6,123.5z"/>
</svg>
