<?xml version="1.0" encoding="utf-8"?>
<!-- Generator: Adobe Illustrator 22.1.0, SVG Export Plug-In . SVG Version: 6.00 Build 0)  -->
<svg version="1.1" id="Слой_1" xmlns="http://www.w3.org/2000/svg" xmlns:xlink="http://www.w3.org/1999/xlink" x="0px" y="0px"
	 viewBox="0 0 1920 156.6" style="enable-background:new 0 0 1920 156.6;" xml:space="preserve">
<style type="text/css">
	.st0{fill:#FFFFFF;}
	.st1{fill:#D2ECF5;}
	.st2{fill:#F1FBFE;}
</style>
<path class="st0" d="M1336.9,84c-298-6.9-598.7-94.7-851.9-83.7C262,10.1,82.4,40.9,0,59.3l0,97.2h1920V7
	C1823.5,45,1621,90.6,1336.9,84z"/>
<path class="st1" d="M912.6,38.5C761.9,16,617-5.1,485,0.7C262,10.5,82.4,41.3,0,59.7v70.4c75.5-23.2,263.3-70.1,501.8-97
	C627.9,18.9,767.4,27.6,912.6,38.5z"/>
<path class="st2" d="M923.7,40.2c-3.7-0.6-7.4-1.1-11.1-1.7c-145.2-10.9-284.7-19.7-410.8-5.4C263.3,60.1,75.5,107,0,130.1v22.1
	c83.2-26.4,266.2-74.9,496.3-106.7C626.9,27.6,772.3,33,923.7,40.2z"/>
</svg>
