<svg 
 xmlns="http://www.w3.org/2000/svg"
 xmlns:xlink="http://www.w3.org/1999/xlink"
 width="105px" height="80px">
<path fill-rule="evenodd"  fill="rgb(221, 221, 221)"
 d="M95.139,47.253 C101.168,50.176 105.000,56.249 105.000,63.052 L105.000,78.457 C105.000,79.309 104.311,80.000 103.462,80.000 L1.538,80.000 C0.689,80.000 -0.000,79.309 -0.000,78.457 L-0.000,63.052 C-0.000,59.751 0.918,56.534 2.656,53.748 C2.757,53.586 2.890,53.457 3.034,53.348 C3.409,52.680 4.041,51.862 4.939,51.008 C7.265,48.901 7.480,48.681 9.281,47.501 C10.017,46.908 10.244,46.618 10.565,46.428 L14.747,43.946 L14.747,42.875 C10.754,41.071 7.754,37.417 6.854,33.010 C6.792,32.260 6.125,32.482 5.758,32.655 C3.987,32.109 3.656,31.780 3.272,31.269 C2.900,30.775 2.380,29.310 2.175,28.322 C1.970,27.335 2.251,26.593 2.145,25.736 C2.028,24.782 2.453,23.420 4.211,23.371 C3.955,20.514 3.769,19.922 3.680,19.709 C2.884,17.808 3.266,13.364 5.087,10.024 C6.550,7.486 8.317,5.745 11.984,5.511 C13.043,1.387 16.170,1.124 18.957,0.200 C19.733,0.299 19.750,0.165 20.761,-0.002 C22.842,0.186 25.365,0.393 29.341,3.899 C30.180,5.211 30.813,5.510 32.237,6.537 C34.531,8.781 35.635,10.012 36.307,13.164 C36.638,13.844 36.717,14.474 36.789,15.051 C37.157,18.005 37.388,19.880 36.486,21.984 C38.012,22.677 38.336,23.702 38.350,25.488 L38.350,28.162 C38.552,28.779 38.634,29.026 38.690,29.839 C40.214,27.757 42.235,26.626 43.576,26.696 C45.808,23.610 50.853,23.782 52.500,23.920 C54.938,23.493 58.531,23.686 61.605,26.635 C62.900,27.232 64.976,28.367 66.105,30.922 C66.639,32.340 67.448,35.409 66.356,37.318 C66.858,38.503 67.541,40.302 65.354,43.308 C64.840,44.461 64.476,45.235 63.182,46.137 C61.698,50.014 59.869,52.127 57.549,53.402 L57.549,54.735 C60.131,55.072 62.543,56.139 64.536,57.832 C65.962,53.232 69.235,49.382 73.607,47.253 C73.722,46.919 73.950,46.622 74.277,46.428 L78.459,43.946 L78.459,43.877 C77.480,43.407 76.554,42.820 75.698,42.124 C75.532,43.149 74.736,43.963 73.681,44.129 C73.551,44.149 73.423,44.159 73.296,44.159 C72.253,44.159 71.319,43.490 70.993,42.462 C68.247,33.793 64.583,17.958 70.897,9.300 C73.779,5.347 78.349,3.343 84.478,3.343 C92.850,3.343 98.328,7.377 100.393,15.004 C100.349,13.900 100.276,13.294 100.508,15.442 C100.548,15.601 100.596,15.752 100.632,15.915 C100.770,16.371 100.873,16.961 100.728,17.448 C100.862,18.666 101.040,20.255 101.278,22.331 C101.360,29.741 99.659,37.057 98.230,41.978 C97.890,43.150 96.767,43.878 95.562,43.707 C94.555,43.565 93.779,42.836 93.547,41.889 C92.567,42.729 91.480,43.426 90.315,43.963 L94.469,46.428 C94.796,46.622 95.024,46.918 95.139,47.253 ZM10.458,49.490 C9.484,49.964 9.151,50.316 8.217,51.078 C5.858,52.554 4.972,53.983 4.555,54.539 C4.529,54.563 4.511,54.578 4.487,54.600 C4.470,54.691 4.442,54.799 4.396,54.937 C2.618,57.508 2.216,60.596 2.256,63.338 L2.256,78.149 L35.684,77.943 L35.645,68.242 C35.645,65.486 36.460,62.851 38.731,59.429 C37.673,55.723 34.110,51.365 30.697,49.323 C30.335,50.173 26.580,56.538 26.580,56.538 C26.362,56.908 26.000,57.170 25.581,57.260 C25.473,57.284 25.365,57.295 25.257,57.295 C24.943,57.295 24.634,57.199 24.373,57.015 L24.205,56.897 L23.999,57.864 L25.167,70.342 C25.202,70.718 25.098,71.095 24.875,71.399 L21.901,75.462 C21.612,75.858 21.151,76.092 20.662,76.092 C20.172,76.092 19.712,75.858 19.422,75.462 L16.448,71.399 C16.225,71.094 16.122,70.718 16.157,70.342 L17.314,57.978 L17.088,56.918 L16.949,57.015 C16.688,57.199 16.379,57.295 16.066,57.295 C15.958,57.295 15.849,57.284 15.742,57.260 C15.323,57.170 14.960,56.908 14.742,56.538 C14.742,56.538 10.973,50.150 10.458,49.490 ZM19.482,57.783 L21.943,57.783 L22.148,54.904 L20.644,54.413 L19.908,54.931 L19.072,55.109 L19.482,57.783 ZM18.047,70.949 L20.508,73.829 L22.969,70.743 L21.943,59.429 L19.277,59.429 L18.047,70.949 ZM20.661,49.776 L23.498,45.600 L23.498,43.737 C22.521,43.962 21.514,44.084 20.488,44.092 L20.383,44.092 C19.508,44.092 18.654,44.006 17.823,43.848 L17.823,45.598 L20.661,49.776 ZM21.738,52.435 L25.020,54.698 L28.916,48.116 L25.635,46.058 L21.738,52.435 ZM12.510,48.116 L16.406,54.698 L19.687,52.435 L15.586,46.058 L12.510,48.116 ZM8.526,30.159 C9.015,36.655 13.369,41.910 19.999,41.616 C20.404,41.589 20.364,41.749 20.853,41.490 C22.799,41.716 23.397,41.483 24.281,41.057 C24.836,40.854 25.028,40.674 25.344,40.489 C27.206,39.432 27.774,39.077 28.667,37.977 C30.538,37.104 31.342,33.099 31.123,30.157 L31.103,27.485 C29.547,26.873 28.403,25.433 28.222,23.660 C27.694,18.503 26.429,16.449 25.755,16.366 C23.777,16.123 22.150,15.567 20.577,15.028 C19.058,14.508 17.619,14.016 16.026,13.894 C15.732,14.086 15.045,14.726 14.607,16.078 C14.136,17.532 13.395,18.974 12.339,20.486 C12.163,20.739 11.858,21.471 11.793,23.537 C11.743,25.141 10.889,26.523 9.627,27.307 C8.482,27.561 8.524,30.163 8.526,30.159 ZM3.761,25.687 C3.369,26.575 3.896,28.162 3.896,28.162 C3.755,29.106 4.334,29.640 4.719,30.369 C5.630,30.637 5.793,30.695 6.529,30.791 C7.151,31.372 7.202,30.191 6.973,29.602 L6.973,27.545 C6.529,26.623 5.080,24.258 3.761,25.687 ZM35.179,15.740 C35.136,14.521 35.121,14.679 34.508,12.804 C34.007,10.349 32.713,9.331 30.980,7.844 C28.990,6.521 28.176,5.423 27.246,4.279 C26.002,2.748 22.341,1.594 20.309,2.052 C20.148,1.964 20.476,1.983 19.690,2.030 C19.344,2.529 19.276,2.209 18.649,2.141 C16.654,2.595 13.725,3.178 13.684,6.916 C13.555,7.311 13.252,7.638 12.643,7.384 C9.671,6.761 8.231,8.546 6.924,10.407 C4.634,13.682 4.984,16.088 5.223,18.145 C5.462,20.202 6.008,24.168 7.146,24.751 C7.274,25.094 7.436,24.988 7.616,25.169 C8.704,26.565 9.322,24.791 9.780,24.125 C10.765,22.605 10.127,21.693 10.635,19.435 C12.246,17.978 12.497,17.151 12.999,15.539 C12.973,14.328 14.648,11.444 16.543,11.935 C18.725,12.243 20.249,12.695 21.833,13.569 C23.542,14.511 24.588,14.219 26.967,14.692 C28.888,15.493 29.018,18.875 30.190,23.889 C30.787,26.083 32.266,25.900 33.109,25.710 C33.338,25.616 33.987,25.109 33.748,24.247 C34.816,24.357 34.476,23.530 34.476,23.530 C34.644,23.573 34.765,23.350 34.955,22.051 C35.202,20.364 35.113,21.256 35.113,20.399 C35.401,19.622 35.400,18.890 35.179,15.740 ZM35.709,25.164 C35.703,25.236 35.697,25.307 35.691,25.383 C35.619,26.346 33.646,27.154 32.812,27.545 L33.018,31.248 L34.863,31.248 C35.565,31.110 35.707,31.136 36.494,30.681 C36.993,29.581 37.148,28.829 36.914,28.368 L36.914,25.899 C37.052,25.269 36.556,23.967 35.709,25.164 ZM37.887,37.497 C37.209,35.425 37.193,33.478 37.833,31.688 C37.004,32.528 35.900,32.996 34.721,33.005 C34.721,33.005 33.921,33.011 33.311,32.996 C32.576,35.385 31.658,37.623 30.177,39.270 C28.680,40.934 27.906,41.047 26.571,42.216 C26.574,42.629 26.574,43.945 26.574,43.945 L30.757,46.428 C31.090,46.626 31.321,46.931 31.433,47.274 C35.785,49.405 39.043,53.246 40.464,57.832 C42.457,56.139 44.869,55.073 47.451,54.736 L47.451,53.454 C45.080,52.184 43.212,50.041 42.329,46.906 C40.977,45.881 40.293,45.981 39.779,44.356 C37.212,42.398 37.578,38.993 37.887,37.497 ZM62.502,41.739 L62.502,44.215 C63.014,45.165 63.094,43.932 63.312,43.296 C63.850,42.703 63.524,42.520 63.820,42.323 C65.244,40.973 65.783,38.994 64.686,38.024 C64.632,37.858 64.735,37.059 64.975,36.769 C65.874,35.379 65.150,32.865 64.660,31.676 C63.752,29.875 62.832,28.978 61.311,28.568 C60.600,27.981 60.399,27.912 59.730,27.460 C58.508,25.742 53.290,24.779 52.438,25.956 C51.936,25.612 52.067,25.958 51.795,25.831 C49.704,24.889 46.203,25.849 45.160,27.774 C44.531,28.119 44.764,28.156 44.042,28.388 C42.252,27.944 39.780,30.264 39.448,31.852 C39.250,33.508 38.519,34.902 39.273,36.425 C39.878,37.221 39.565,37.824 39.398,38.663 C38.922,40.258 39.481,42.146 40.959,43.103 C41.396,43.561 41.836,42.903 41.905,43.359 C41.972,43.764 42.195,45.107 42.509,44.367 C43.254,44.554 42.747,42.525 42.644,41.702 C42.542,40.879 43.211,40.274 43.776,40.217 C44.034,40.163 45.768,39.710 46.170,37.301 C46.258,36.774 46.613,36.329 47.107,36.127 C47.602,35.925 48.165,35.995 48.596,36.312 C48.604,36.317 50.230,37.460 52.500,37.460 C54.776,37.460 56.387,36.323 56.403,36.312 C56.833,35.996 57.396,35.926 57.891,36.127 C58.385,36.329 58.740,36.774 58.828,37.301 C59.230,39.710 60.964,40.163 61.222,40.217 C61.982,40.322 62.502,40.967 62.502,41.739 ZM60.760,46.751 C59.518,46.026 61.113,44.789 61.113,44.413 L61.113,41.944 C60.188,41.445 57.982,40.472 57.272,38.101 C55.819,39.037 54.000,39.541 52.534,39.540 C50.660,39.539 49.562,38.967 47.975,38.051 C46.995,40.543 45.188,41.355 44.297,41.944 L44.297,44.413 C44.297,44.827 45.458,46.098 44.332,46.746 C45.511,49.617 47.069,52.084 51.825,52.233 C52.211,52.456 52.114,52.456 52.458,52.191 C55.720,52.761 59.508,49.691 60.760,46.751 ZM49.834,54.492 L49.834,56.344 C49.761,57.694 50.453,59.171 52.586,59.254 C54.718,59.336 55.230,57.595 55.166,56.344 L55.166,54.492 C54.535,54.616 53.195,54.713 52.537,54.719 L52.457,54.719 C51.801,54.719 51.156,54.656 50.527,54.539 L49.834,54.492 ZM57.479,57.176 C56.694,59.894 54.770,61.404 52.500,61.404 C50.230,61.404 48.306,59.893 47.439,57.087 C42.317,57.601 37.925,62.574 37.939,67.863 L37.824,77.799 C38.055,78.172 66.608,77.805 66.886,77.714 C66.953,75.658 67.019,73.914 66.974,70.714 C66.881,70.323 66.855,69.878 66.855,69.509 C67.094,69.434 66.948,67.628 66.949,67.483 C66.867,62.386 62.629,58.113 57.479,57.176 ZM76.084,47.910 L79.775,54.492 L83.262,52.435 L79.160,46.264 L76.084,47.910 ZM84.373,49.776 L87.212,45.597 L87.212,44.969 C86.322,45.145 85.407,45.237 84.478,45.237 C83.476,45.237 82.492,45.129 81.535,44.924 L81.535,45.598 L84.373,49.776 ZM95.937,40.439 C97.510,38.791 99.134,26.637 99.041,22.921 C98.963,19.850 98.747,20.452 98.704,17.834 C98.551,17.442 98.482,16.810 98.374,15.872 C96.488,8.479 90.322,5.120 83.894,5.343 C77.740,5.556 73.576,8.320 72.255,11.489 C67.668,19.286 70.626,34.654 73.243,41.327 C72.798,32.047 73.159,26.513 74.119,23.568 C76.718,15.601 83.852,13.977 84.155,13.912 C84.730,13.787 85.327,14.004 85.690,14.470 C85.729,14.520 89.675,19.561 93.139,22.370 C93.868,23.003 95.248,26.082 95.937,40.439 ZM93.640,39.212 C93.154,27.803 91.640,25.427 91.528,23.930 C88.706,21.409 86.128,18.705 84.180,16.253 C82.470,16.447 77.436,20.051 76.383,23.691 C75.442,26.945 74.967,31.166 75.176,38.449 C75.945,39.584 75.948,39.422 77.100,40.463 C79.745,41.978 81.576,42.945 84.301,43.112 C87.781,42.813 90.900,41.595 93.640,39.212 ZM89.619,46.058 L85.928,52.435 L89.004,54.492 L92.490,47.910 L89.619,46.058 ZM90.292,56.538 C90.074,56.908 89.712,57.170 89.293,57.260 C89.185,57.284 89.077,57.295 88.969,57.295 C88.655,57.295 88.346,57.199 88.085,57.015 L84.373,54.401 L80.661,57.015 C80.400,57.199 80.091,57.295 79.777,57.295 C79.669,57.295 79.561,57.284 79.453,57.260 C79.034,57.170 78.672,56.908 78.453,56.538 C78.453,56.538 74.691,50.160 74.279,49.504 C69.624,51.727 67.199,55.394 66.514,59.808 C68.540,62.851 69.355,65.486 69.355,68.242 L69.355,70.100 C69.355,70.220 69.313,70.326 69.287,70.437 C69.200,76.757 69.269,77.646 69.516,77.735 C69.521,77.737 102.949,77.737 102.949,77.737 L102.949,63.132 C102.959,57.608 100.167,51.976 94.437,49.558 C94.055,50.159 90.292,56.538 90.292,56.538 ZM84.478,70.385 C83.628,70.385 82.940,69.695 82.940,68.842 C82.940,67.990 83.628,67.300 84.478,67.300 C85.327,67.300 86.016,67.990 86.016,68.842 C86.016,69.695 85.327,70.385 84.478,70.385 ZM84.478,63.441 C83.628,63.441 82.940,62.750 82.940,61.898 C82.940,61.046 83.628,60.355 84.478,60.355 C85.327,60.355 86.016,61.046 86.016,61.898 C86.016,62.750 85.327,63.441 84.478,63.441 ZM52.648,74.549 C51.798,74.549 51.110,73.858 51.110,73.006 C51.110,72.154 51.798,71.463 52.648,71.463 C53.497,71.463 54.186,72.154 54.186,73.006 C54.186,73.858 53.497,74.549 52.648,74.549 ZM52.648,68.193 C51.798,68.193 51.110,67.502 51.110,66.649 C51.110,65.798 51.798,65.107 52.648,65.107 C53.497,65.107 54.186,65.798 54.186,66.649 C54.186,67.502 53.497,68.193 52.648,68.193 Z"/>
</svg>